<?xml version="1.0" encoding="UTF-8" standalone="no"?>
<svg
   xmlns:dc="http://purl.org/dc/elements/1.1/"
   xmlns:cc="http://creativecommons.org/ns#"
   xmlns:rdf="http://www.w3.org/1999/02/22-rdf-syntax-ns#"
   xmlns:svg="http://www.w3.org/2000/svg"
   xmlns="http://www.w3.org/2000/svg"
   xmlns:xlink="http://www.w3.org/1999/xlink"
   xmlns:sodipodi="http://sodipodi.sourceforge.net/DTD/sodipodi-0.dtd"
   xmlns:inkscape="http://www.inkscape.org/namespaces/inkscape"
   inkscape:version="1.0.1 (3bc2e813f5, 2020-09-07)"
   sodipodi:docname="computer.svg"
   id="svg60"
   version="1.1"
   height="32"
   width="32">
  <metadata
     id="metadata64">
    <rdf:RDF>
      <cc:Work
         rdf:about="">
        <dc:format>image/svg+xml</dc:format>
        <dc:type
           rdf:resource="http://purl.org/dc/dcmitype/StillImage" />
        <dc:title />
      </cc:Work>
    </rdf:RDF>
  </metadata>
  <sodipodi:namedview
     inkscape:document-rotation="0"
     inkscape:snap-others="false"
     inkscape:object-nodes="true"
     inkscape:snap-midpoints="true"
     inkscape:snap-smooth-nodes="true"
     inkscape:snap-bbox-midpoints="true"
     inkscape:snap-intersection-paths="true"
     inkscape:current-layer="svg60"
     inkscape:window-maximized="1"
     inkscape:window-y="36"
     inkscape:window-x="0"
     inkscape:cy="9.8873542"
     inkscape:cx="17.058159"
     inkscape:zoom="7.9999999"
     inkscape:object-paths="true"
     inkscape:snap-nodes="true"
     inkscape:snap-bbox-edge-midpoints="true"
     inkscape:bbox-nodes="true"
     inkscape:snap-bbox="true"
     showgrid="true"
     id="namedview62"
     inkscape:window-height="932"
     inkscape:window-width="1920"
     inkscape:pageshadow="2"
     inkscape:pageopacity="0"
     guidetolerance="10"
     gridtolerance="10"
     objecttolerance="10"
     borderopacity="1"
     bordercolor="#666666"
     pagecolor="#c8c8c8">
    <inkscape:grid
       id="grid879"
       type="xygrid" />
  </sodipodi:namedview>
  <defs
     id="defs6">
    <linearGradient
       inkscape:collect="always"
       id="linearGradient1117">
      <stop
         style="stop-color:#00ffff;stop-opacity:1"
         offset="0"
         id="stop1113" />
      <stop
         style="stop-color:#00ff87;stop-opacity:1"
         offset="1"
         id="stop1115" />
    </linearGradient>
    <style
       type="text/css"
       id="current-color-scheme">.ColorScheme-Text { color:#dedede; } .ColorScheme-Highlight { color:#5294e2; } .ColorScheme-ButtonBackground { color:#dedede; }</style>
    <filter
       style="color-interpolation-filters:sRGB"
       height="1.072"
       width="1.072"
       y="-0.035999998"
       x="-0.035999998"
       id="a">
      <feGaussianBlur
         id="feGaussianBlur3"
         stdDeviation="0.435" />
    </filter>
    <style
       type="text/css"
       id="style883" />
    <style
       id="current-color-scheme-5"
       type="text/css">.ColorScheme-Text { color:#dedede; } .ColorScheme-Highlight { color:#5294e2; } .ColorScheme-ButtonBackground { color:#dedede; }</style>
    <filter
       id="a-6"
       x="-0.035999998"
       y="-0.035999998"
       width="1.072"
       height="1.072"
       style="color-interpolation-filters:sRGB">
      <feGaussianBlur
         stdDeviation="0.435"
         id="feGaussianBlur3-2" />
    </filter>
    <style
       id="style883-9"
       type="text/css" />
    <style
       id="style860"
       type="text/css" />
    <style
       id="style862"
       type="text/css" />
    <linearGradient
       gradientUnits="userSpaceOnUse"
       gradientTransform="matrix(7.5589094,0,0,2.1597098,-47.000003,-633.02145)"
       y2="291.71"
       y1="293.56"
       x2="8.2021"
       x1="8.2021"
       id="linearGradient851">
      <stop
         id="stop864"
         offset="0"
         stop-color="#323232" />
      <stop
         id="stop866"
         offset="1" />
    </linearGradient>
    <linearGradient
       gradientUnits="userSpaceOnUse"
       gradientTransform="matrix(1.1338458,0,0,1.8898049,6.3998286,-553.78466)"
       y2="294.09"
       y1="293.39"
       x2="8.2021"
       x1="8.2021"
       id="linearGradient865">
      <stop
         id="stop869"
         offset="0"
         stop-color="#323232" />
      <stop
         id="stop871"
         offset="1" />
    </linearGradient>
    <linearGradient
       gradientUnits="userSpaceOnUse"
       gradientTransform="matrix(0.46667002,0,0,0.51427827,-33.000002,-11.200115)"
       y2="14"
       y1="-21"
       x2="135"
       x1="75"
       id="linearGradient1458">
      <stop
         id="stop874"
         offset="0"
         stop-color="#32b4ff" />
      <stop
         id="stop876"
         offset=".2964"
         stop-color="#2db4ff" />
      <stop
         id="stop878"
         offset=".72739"
         stop-color="#5087e1" />
      <stop
         id="stop880"
         offset="1"
         stop-color="#5a7dd2" />
    </linearGradient>
    <linearGradient
       gradientUnits="userSpaceOnUse"
       y2="51"
       y1="16"
       x2="62"
       x1="2"
       id="linearGradient920"
       gradientTransform="matrix(0.49999998,0,0,0.57142859,3.7924731e-8,-32.142858)">
      <stop
         id="stop883"
         offset="0"
         stop-color="#3c3c3c" />
      <stop
         id="stop885"
         offset="1"
         stop-color="#1e1e1e" />
    </linearGradient>
    <linearGradient
       inkscape:collect="always"
       id="linearGradient1681">
      <stop
         style="stop-color:#00ffff;stop-opacity:1"
         offset="0"
         id="stop1677" />
      <stop
         style="stop-color:#00ff87;stop-opacity:1"
         offset="1"
         id="stop1679" />
    </linearGradient>
    <linearGradient
       inkscape:collect="always"
       xlink:href="#linearGradient1681"
       id="linearGradient1041"
       gradientUnits="userSpaceOnUse"
       gradientTransform="translate(48,-38.000054)"
       x1="5.3932104"
       y1="43.393211"
       x2="26.606628"
       y2="64.606628" />
    <linearGradient
       inkscape:collect="always"
       xlink:href="#linearGradient1117"
       id="linearGradient1119"
       x1="-105.60681"
       y1="5.3931847"
       x2="-84.393394"
       y2="26.6066"
       gradientUnits="userSpaceOnUse"
       gradientTransform="translate(111,5.34675e-5)" />
  </defs>
  <g
     id="22-22-computer">
    <rect
       height="22"
       width="22"
       x="-27"
       transform="scale(-1,1)"
       id="rect23"
       y="37.983051"
       style="color:#bebebe;opacity:0;stroke-width:2" />
    <g
       id="g1030"
       transform="translate(26,-1.0169487)">
      <path
         transform="translate(-26,1.0169487)"
         d="M 7 40 C 6.446 40 6 40.446 6 41 L 6 54 C 6 54.554 6.446 55 7 55 L 24 55 C 24.554 55 25 54.554 25 54 L 25 41 C 25 40.446 24.554 40 24 40 L 7 40 z M 7 41 L 24 41 L 24 53 L 24 54 L 7 54 L 7 53 L 7 41 z "
         style="opacity:1;fill:#eaeaea;fill-opacity:1;stroke:none;stroke-width:0.6794576;stroke-miterlimit:4;stroke-dasharray:none;stroke-opacity:1"
         id="rect921" />
      <g
         transform="translate(0.5)"
         id="g996">
        <rect
           style="opacity:1;fill:#eaeaea;fill-opacity:1;stroke:none;stroke-width:1.41421;stroke-miterlimit:4;stroke-dasharray:none;stroke-opacity:1"
           id="rect986"
           width="2"
           height="2"
           x="-12.5"
           y="56.016949" />
        <rect
           y="56.016949"
           x="-10.5"
           height="2"
           width="1"
           id="rect990"
           style="opacity:1;fill:#eaeaea;fill-opacity:1;stroke:none;stroke-width:1;stroke-miterlimit:4;stroke-dasharray:none;stroke-opacity:1" />
      </g>
      <rect
         y="58.016949"
         x="-17"
         height="1"
         width="13"
         id="rect992"
         style="opacity:1;fill:#eaeaea;fill-opacity:1;stroke:none;stroke-width:1.61245;stroke-miterlimit:4;stroke-dasharray:none;stroke-opacity:1" />
    </g>
    <rect
       style="opacity:0.5;fill:#eaeaea;fill-opacity:1;stroke:none;stroke-width:2.08167;stroke-miterlimit:4;stroke-dasharray:none;stroke-opacity:1"
       id="rect880"
       width="17"
       height="13"
       x="7"
       y="41" />
  </g>
  <g
     id="16-16-computer">
    <rect
       height="16"
       width="16"
       y="65.991524"
       x="-24"
       transform="scale(-1,1)"
       id="rect16"
       style="color:#bebebe;fill:none" />
    <rect
       height="16"
       width="16"
       y="65.991524"
       x="-24"
       transform="scale(-1,1)"
       id="rect18"
       style="color:#bebebe;opacity:0;stroke-width:3" />
    <g
       id="g1067"
       transform="translate(19)">
      <path
         transform="translate(-19)"
         d="M 9.9824219 67 C 9.4378116 67 9 67.437812 9 67.982422 L 9 78.017578 C 9 78.562188 9.4378116 79 9.9824219 79 L 23.017578 79 C 23.562188 79 24 78.562188 24 78.017578 L 24 67.982422 C 24 67.437812 23.562188 67 23.017578 67 L 9.9824219 67 z M 10 68 L 23 68 L 23 77 L 23 78 L 10 78 L 10 77 L 10 68 z "
         style="opacity:1;fill:#eaeaea;fill-opacity:1;stroke:none;stroke-width:0.53997815;stroke-miterlimit:4;stroke-dasharray:none;stroke-opacity:1"
         id="rect982" />
      <g
         id="g1060">
        <rect
           style="opacity:1;fill:#eaeaea;fill-opacity:1;stroke:none;stroke-width:1.41421;stroke-miterlimit:4;stroke-dasharray:none;stroke-opacity:1"
           id="rect1052"
           width="2"
           height="2"
           x="-4"
           y="79" />
        <rect
           style="opacity:1;fill:#eaeaea;fill-opacity:1;stroke:none;stroke-width:1;stroke-miterlimit:4;stroke-dasharray:none;stroke-opacity:1"
           id="rect1054"
           width="1"
           height="2"
           x="-2"
           y="79" />
      </g>
      <rect
         y="81"
         x="-8"
         height="1"
         width="11"
         id="rect1056"
         style="opacity:1;fill:#eaeaea;fill-opacity:1;stroke:none;stroke-width:1.48324;stroke-miterlimit:4;stroke-dasharray:none;stroke-opacity:1" />
    </g>
    <rect
       style="opacity:0.5;fill:#eaeaea;fill-opacity:1;stroke:none;stroke-width:2.10819;stroke-miterlimit:4;stroke-dasharray:none;stroke-opacity:1"
       id="rect882"
       width="13"
       height="10"
       x="10"
       y="68" />
  </g>
  <g
     id="22-22-computer-laptop">
    <rect
       height="22"
       width="22"
       x="-75"
       transform="scale(-1,1)"
       id="rect893"
       y="37.983051"
       style="color:#bebebe;opacity:0;stroke-width:2" />
    <g
       id="g1113"
       transform="translate(-27.5,-0.0169487)">
      <path
         transform="translate(27.5,0.0169487)"
         d="M 56 39.982422 C 55.446 39.982422 55 40.428422 55 40.982422 L 55 53.982422 C 55 54.536422 55.446 54.982422 56 54.982422 L 73 54.982422 C 73.554 54.982422 74 54.536422 74 53.982422 L 74 40.982422 C 74 40.428422 73.554 39.982422 73 39.982422 L 56 39.982422 z M 56 40.982422 L 73 40.982422 L 73 41 L 73 52.982422 L 73 54 L 56 54 L 56 52.982422 L 56 41 L 56 40.982422 z "
         style="opacity:1;fill:#eaeaea;fill-opacity:1;stroke:none;stroke-width:0.6794576;stroke-miterlimit:4;stroke-dasharray:none;stroke-opacity:1"
         id="rect1085" />
      <rect
         ry="0"
         y="56"
         x="82.5"
         height="1.0169487"
         width="19"
         id="rect1109"
         style="opacity:1;fill:#eaeaea;fill-opacity:1;stroke:none;stroke-width:0.71307385;stroke-miterlimit:4;stroke-dasharray:none;stroke-opacity:1" />
    </g>
    <rect
       style="opacity:0.5;fill:#eaeaea;fill-opacity:1;stroke:none;stroke-width:2.08167;stroke-miterlimit:4;stroke-dasharray:none;stroke-opacity:1"
       id="rect884"
       width="17"
       height="13"
       x="56"
       y="41" />
  </g>
  <g
     id="16-16-computer-laptop">
    <rect
       height="16"
       width="16"
       y="65.991524"
       x="-72"
       transform="scale(-1,1)"
       id="rect922"
       style="color:#bebebe;fill:none" />
    <rect
       height="16"
       width="16"
       y="65.991524"
       x="-72"
       transform="scale(-1,1)"
       id="rect924"
       style="color:#bebebe;opacity:0;stroke-width:3" />
    <g
       id="g1131"
       transform="translate(-18.5,0.99152374)">
      <path
         transform="translate(18.5,-0.99152374)"
         d="M 58 66.992188 C 57.446 66.992188 57 67.438187 57 67.992188 L 57 77.992188 C 57 78.546188 57.446 78.992188 58 78.992188 L 71 78.992188 C 71.554 78.992188 72 78.546188 72 77.992188 L 72 67.992188 C 72 67.438187 71.554 66.992188 71 66.992188 L 58 66.992188 z M 58 67.992188 L 71 67.992188 L 71 68 L 71 76.992188 L 71 78 L 58 78 L 58 76.992188 L 58 68 L 58 67.992188 z "
         style="opacity:1;fill:#eaeaea;fill-opacity:1;stroke:none;stroke-width:0.53997815;stroke-miterlimit:4;stroke-dasharray:none;stroke-opacity:1"
         id="rect1104" />
      <rect
         ry="0"
         y="79"
         x="75.5"
         height="1"
         width="15"
         id="rect1127"
         style="opacity:1;fill:#eaeaea;fill-opacity:1;stroke:none;stroke-width:1;stroke-miterlimit:4;stroke-dasharray:none;stroke-opacity:1" />
    </g>
    <rect
       style="opacity:0.5;fill:#eaeaea;fill-opacity:1;stroke:none;stroke-width:2.10819;stroke-miterlimit:4;stroke-dasharray:none;stroke-opacity:1"
       id="rect886"
       width="13"
       height="10"
       x="58"
       y="68" />
  </g>
  <g
     id="g955"
     transform="translate(35,-35.999999)">
    <circle
       r="14.5"
       cy="16"
       cx="-19"
       id="path6762"
       style="fill:none;fill-opacity:1;stroke:#eaeaea;stroke-width:0.999997;stroke-miterlimit:4;stroke-dasharray:none;stroke-opacity:1" />
    <rect
       id="rect928"
       ry="0"
       height="2"
       width="4"
       y="21"
       x="-21"
       style="fill:#eaeaea;fill-opacity:1;stroke-width:2.33276;image-rendering:optimizeSpeed" />
    <rect
       id="rect930"
       ry="0"
       height="1"
       width="13.999998"
       y="23"
       x="-25.999998"
       style="fill:#eaeaea;fill-opacity:1;stroke-width:1.29096;image-rendering:optimizeSpeed" />
    <path
       transform="translate(-35)"
       d="M 7.9667969,9 C 7.4308069,9 7,9.4308061 7,9.9667969 V 20.033203 C 7,20.569193 7.4308069,21 7.9667969,21 H 24.033203 C 24.569193,21 25,20.569193 25,20.033203 V 9.9667969 C 25,9.4308061 24.569193,9 24.033203,9 Z M 8,10 H 24 V 20 H 8 Z"
       style="fill:#eaeaea;fill-opacity:1;stroke-width:0.320714;image-rendering:optimizeSpeed"
       id="rect932" />
    <rect
       id="rect934"
       ry="0"
       height="10"
       width="16"
       y="10"
       x="-27"
       style="opacity:0.5;fill:#eaeaea;fill-opacity:1;stroke-width:0.289125;image-rendering:optimizeSpeed" />
  </g>
  <g
     id="g1005"
     transform="translate(-40,-36)">
    <circle
       style="fill:none;fill-opacity:1;stroke:#eaeaea;stroke-width:0.999997;stroke-miterlimit:4;stroke-dasharray:none;stroke-opacity:1"
       id="circle974"
       cx="104"
       cy="16"
       r="14.5" />
    <rect
       style="fill:#eaeaea;fill-opacity:1;stroke-width:1.46381;image-rendering:optimizeSpeed"
       x="95"
       y="22"
       width="18.000002"
       height="1"
       ry="0"
       id="rect978" />
    <path
       transform="translate(40)"
       d="M 55.966797,9 C 55.430807,9 55,9.4308061 55,9.9667969 V 20.033203 C 55,20.569193 55.430807,21 55.966797,21 H 72.033203 C 72.569193,21 73,20.569193 73,20.033203 V 9.9667969 C 73,9.4308061 72.569193,9 72.033203,9 Z M 56,10 H 72 V 20 H 56 Z"
       style="fill:#eaeaea;fill-opacity:1;stroke-width:0.320714;image-rendering:optimizeSpeed"
       id="rect980" />
    <rect
       style="opacity:0.5;fill:#eaeaea;fill-opacity:1;stroke-width:0.289125;image-rendering:optimizeSpeed"
       x="96"
       y="10"
       width="16"
       height="10"
       ry="0"
       id="rect983" />
  </g>
  <g
     id="computer">
    <rect
       id="rect38-7"
       style="opacity:0;stroke-width:2;paint-order:fill markers stroke"
       ry="0"
       rx="0"
       height="32"
       width="32"
       y="-3.0004884e-07"
       x="0" />
    <path
       id="rect952"
       style="fill:url(#linearGradient1119);fill-opacity:1;stroke-width:2.33276;image-rendering:optimizeSpeed"
       d="M 15.886719,1.0000535 C 7.64672,1.0622843 0.99977,7.7598205 1,16.000053 c 0,8.284271 6.71573,15 15,15 8.284271,0 15,-6.715729 15,-15 C 31,7.7157825 24.284271,1.0000535 16,1.0000535 c -0.03776,-1.4261e-4 -0.07552,-1.4261e-4 -0.113281,0 z m 0.113281,3 c 6.627417,0 12,5.3725832 12,11.9999995 0,6.627417 -5.372583,12 -12,12 -6.62742,0 -12,-5.372583 -12,-12 C 4,9.3726367 9.37258,4.0000535 16,4.0000535 Z m -7,5 c -0.53599,0 -1,0.464009 -1,0.9999995 v 9 c 0,0.53599 0.46401,1 1,1 h 5 v 2 h -3 c -0.554,0 -1,0.446 -1,1 0,0.554 0.446,1 1,1 h 10 c 0.554,0 1,-0.446 1,-1 0,-0.554 -0.446,-1 -1,-1 h -3 v -2 h 5 c 0.53599,0 1,-0.46401 1,-1 v -9 C 24,9.4640625 23.53599,9.0000535 23,9.0000535 Z m 1,1.9999995 h 12 v 7 H 10 Z" />
  </g>
  <g
     id="computer-laptop">
    <rect
       x="48"
       y="-1.4901161e-06"
       width="32"
       height="32"
       rx="0"
       ry="0"
       style="opacity:0;stroke-width:2;paint-order:fill markers stroke"
       id="rect993" />
    <path
       id="path1035"
       style="fill:url(#linearGradient1041);fill-opacity:1;stroke-width:1.934;stroke-linecap:round;stroke-miterlimit:4;stroke-dasharray:none"
       d="M 63.88672,1 C 55.64672,1.06223 48.999765,7.7597665 49,16 49,24.284271 55.71573,31 64,31 72.28427,31 79,24.284271 79,16 79,7.7157288 72.28427,1 64,1 63.9622,0.99985742 63.9245,0.99985742 63.88672,1 Z M 64,4 C 70.62742,4 76,9.372583 76,16 76,22.627417 70.62742,28 64,28 57.37258,28 52,22.627417 52,16 52,9.372583 57.37258,4 64,4 Z m -7,5 c -0.53599,0 -1,0.464009 -1,1 v 9 c 0,0.53599 0.46401,1 1,1 h 14 c 0.53599,0 1,-0.46401 1,-1 V 10 C 72,9.464009 71.53599,9 71,9 Z m 1,2 h 12 v 7 H 58 Z m -1,10 c -0.554,0 -1,0.446 -1,1 0,0.554 0.446,1 1,1 h 14 c 0.554,0 1,-0.446 1,-1 0,-0.554 -0.446,-1 -1,-1 z" />
  </g>
</svg>
