<?xml version="1.0" encoding="UTF-8" standalone="no"?>
<svg
   xmlns:dc="http://purl.org/dc/elements/1.1/"
   xmlns:cc="http://creativecommons.org/ns#"
   xmlns:rdf="http://www.w3.org/1999/02/22-rdf-syntax-ns#"
   xmlns:svg="http://www.w3.org/2000/svg"
   xmlns="http://www.w3.org/2000/svg"
   xmlns:sodipodi="http://sodipodi.sourceforge.net/DTD/sodipodi-0.dtd"
   xmlns:inkscape="http://www.inkscape.org/namespaces/inkscape"
   id="svg86"
   viewBox="0 0 22 22"
   version="1.1"
   height="22"
   width="22"
   sodipodi:docname="disk.svg"
   inkscape:version="1.0.2 (e86c870879, 2021-01-15, custom)">
  <sodipodi:namedview
     pagecolor="#c8c8c8"
     bordercolor="#666666"
     borderopacity="1"
     objecttolerance="10"
     gridtolerance="10"
     guidetolerance="10"
     inkscape:pageopacity="0"
     inkscape:pageshadow="2"
     inkscape:window-width="1920"
     inkscape:window-height="959"
     id="namedview48"
     showgrid="true"
     inkscape:snap-smooth-nodes="true"
     inkscape:snap-bbox="true"
     inkscape:bbox-paths="false"
     inkscape:snap-bbox-edge-midpoints="true"
     inkscape:bbox-nodes="true"
     inkscape:zoom="22.627417"
     inkscape:cx="101.63694"
     inkscape:cy="4.7346129"
     inkscape:window-x="0"
     inkscape:window-y="40"
     inkscape:window-maximized="1"
     inkscape:current-layer="svg86">
    <inkscape:grid
       type="xygrid"
       id="grid909" />
  </sodipodi:namedview>
  <metadata
     id="metadata88">
    <rdf:RDF>
      <cc:Work
         rdf:about="">
        <dc:format>image/svg+xml</dc:format>
        <dc:type
           rdf:resource="http://purl.org/dc/dcmitype/StillImage" />
        <dc:title></dc:title>
      </cc:Work>
    </rdf:RDF>
  </metadata>
  <defs
     id="defs5">
    <style
       type="text/css"
       id="current-color-scheme">.ColorScheme-Text {
        color:#363636;
      }
      .ColorScheme-Background {
        color:#efefef;
      }
      .ColorScheme-Highlight {
        color:#3498db;
      }
      .ColorScheme-ViewText {
        color:#363636;
      }
      .ColorScheme-ViewBackground {
        color:#fcfcfc;
      }
      .ColorScheme-ViewHover {
        color:#93cee9;
      }
      .ColorScheme-ViewFocus{
        color:#3daee9;
      }
      .ColorScheme-ButtonText {
        color:#363636;
      }
      .ColorScheme-ButtonBackground {
        color:#efefef;
      }
      .ColorScheme-ButtonHover {
        color:#93cee9;
      }
      .ColorScheme-ButtonFocus{
        color:#3daee9;
      }
      .ColorScheme-NegativeText{
        color:#e74c3c;
      }</style>
  </defs>
  <g
     id="disk-quota">
    <path
       id="path9-3"
       d="M 0,0 V 22 H 22 V 0 Z"
       inkscape:connector-curvature="0"
       style="fill:none" />
    <g
       id="g1002">
      <path
         id="path1139"
         style="fill:#fefefe;stroke:none;stroke-width:4.77252;stroke-linecap:round"
         d="M 11 3 L 11 5 L 14.986328 5 C 15.538384 5 15.874152 5.456743 15.982422 6 L 16.978516 14 C 17.04381 14.327623 16.85787 14.609479 16.587891 14.792969 C 16.638033 14.858874 16.682843 14.927988 16.724609 15 L 16.978516 15 C 18.082628 15 19.189197 14.086514 18.972656 13 L 17.974609 5 C 17.758068 3.913486 17.086534 3 15.982422 3 L 11 3 z " />
      <rect
         style="fill:#fefefe;stroke:none;stroke-width:3.99804;stroke-linecap:round"
         id="rect1143"
         width="1.9980392"
         height="2"
         x="16.994118"
         y="13" />
      <rect
         style="fill:#fefefe;stroke:none;stroke-width:3.99804;stroke-linecap:round"
         id="rect1145"
         width="1.9980392"
         height="2"
         x="13.997059"
         y="15"
         ry="0.99901962" />
      <path
         id="path896"
         style="fill:#fefefe;stroke:none;stroke-width:4.77252;stroke-linecap:round"
         d="M 11,3 V 5 H 7.013678 C 6.461622,5 6.124879,5.456743 6.016609,6 l -0.995118,8 c -0.10827,0.543258 0.443062,1 0.995118,1 H 5.021491 C 3.917379,15 2.810814,14.086514 3.027355,13 L 4.024423,5 C 4.240963,3.913486 4.912497,3 6.016609,3 Z"
         sodipodi:nodetypes="ccscccsccsc" />
      <path
         id="path941"
         d="m 10.9244,6 a 3.75,3 0 0 0 -3.6777,3 3.75,3 0 0 0 3.75,3 3.75,3 0 0 0 3.75,-3 h -1.25 a 2.5,2 0 0 1 -2.5,2 2.5,2 0 0 1 -2.5,-2 2.5,2 0 0 1 2.4844,-2 2.5,2 0 0 1 0.0156,0 V 6 a 3.75,3 0 0 0 -0.0723,0 z"
         style="color:#363636;fill:#fefefe;fill-opacity:1" />
      <path
         id="path943"
         opacity="0.35"
         fill="currentColor"
         class="ColorScheme-Text"
         d="M 10.9844,7 A 2.5,2 0 0 0 8.5,9 2.5,2 0 0 0 11,11 2.5,2 0 0 0 13.5,9 h -2 C 11.223,9 11,8.777 11,8.5 V 7 a 2.5,2 0 0 0 -0.0156,0 z"
         style="fill:#fefefe;fill-opacity:1" />
      <ellipse
         id="ellipse945"
         ry="1"
         rx="1.25"
         cy="8.9999857"
         cx="11.004391"
         style="color:#363636;fill:#fefefe;fill-opacity:1" />
      <rect
         style="fill:#fefefe;stroke:none;stroke-width:3.99804;stroke-linecap:round"
         id="rect1141"
         width="1.9980392"
         height="2"
         x="3.007843"
         y="13" />
      <path
         id="rect974"
         style="opacity:1;fill:#fefefe;fill-opacity:1;stroke-width:2;stroke-linecap:round;stroke-linejoin:round"
         d="M 5 13 C 3.892 13 3 13.892 3 15 L 3 17 C 3 18.108 3.892 19 5 19 L 17 19 C 18.108 19 19 18.108 19 17 L 19 15 C 19 13.892 18.108 13 17 13 L 5 13 z M 14.992188 14 L 15 14 C 16.108 14 17 14.892 17 16 C 17 17.108 16.108 18 15 18 L 14.992188 18 C 14.251118 18 13.613139 17.595799 13.267578 17 L 6 17 C 5.446 17 5 16.554 5 16 C 5 15.446 5.446 15 6 15 L 13.267578 15 C 13.613139 14.404201 14.251118 14 14.992188 14 z " />
    </g>
  </g>
  <g
     id="disk-quota-missing">
    <rect
       id="rect24"
       stroke-width="1.76"
       opacity="0"
       height="22"
       width="22"
       y="0"
       x="24.003988"
       style="color:#363636;fill:#363636" />
    <g
       id="g1083">
      <path
         id="path1004"
         style="fill:#fefefe;stroke:none;stroke-width:4.77252;stroke-linecap:round"
         d="m 35,3 v 2 h 3.986328 c 0.552056,0 0.887824,0.456743 0.996094,1 l 0.310547,2.4921875 C 40.721039,8.8608776 41,9.3996007 41,10 c 0,0.273183 -0.03282,0.56161 -0.08594,0.982422 -0.04125,0.326781 -0.106495,0.717048 -0.173828,1.099609 L 40.331041,14 c 0.06529,0.327623 0.526829,0.609479 0.25685,0.792969 0.05014,0.06591 0.09495,0.135019 0.136718,0.207031 h 0.253907 c 1.104112,0 2.210681,-0.913486 1.99414,-2 L 41.974609,5 C 41.758068,3.913486 41.086534,3 39.982422,3 Z"
         sodipodi:nodetypes="ccsccssccccsccsc" />
      <rect
         style="fill:#fefefe;stroke:none;stroke-width:3.99804;stroke-linecap:round"
         id="rect1006"
         width="1.9980392"
         height="2"
         x="40.994118"
         y="13" />
      <path
         id="path1010"
         style="fill:#fefefe;stroke:none;stroke-width:4.77252;stroke-linecap:round"
         d="m 35,3 v 2 h -3.986322 c -0.552056,0 -0.888799,0.456743 -0.997069,1 l -0.995118,8 c -0.10827,0.543258 0.443062,1 0.995118,1 h -0.995118 c -1.104112,0 -2.210677,-0.913486 -1.994136,-2 l 0.997068,-8 c 0.21654,-1.086514 0.888074,-2 1.992186,-2 z"
         sodipodi:nodetypes="ccscccsccsc" />
      <path
         id="path1012"
         d="m 34.9244,6 a 3.75,3 0 0 0 -3.6777,3 3.75,3 0 0 0 3.75,3 3.75,3 0 0 0 3.75,-3 h -1.25 a 2.5,2 0 0 1 -2.5,2 2.5,2 0 0 1 -2.5,-2 2.5,2 0 0 1 2.4844,-2 2.5,2 0 0 1 0.0156,0 V 6 a 3.75,3 0 0 0 -0.0723,0 z"
         style="color:#363636;fill:#fefefe;fill-opacity:1" />
      <path
         id="path1014"
         opacity="0.35"
         fill="currentColor"
         class="ColorScheme-Text"
         d="M 34.9844,7 A 2.5,2 0 0 0 32.5,9 2.5,2 0 0 0 35,11 2.5,2 0 0 0 37.5,9 h -2 C 35.223,9 35,8.777 35,8.5 V 7 a 2.5,2 0 0 0 -0.0156,0 z"
         style="fill:#fefefe;fill-opacity:1" />
      <ellipse
         id="ellipse1016"
         ry="1"
         rx="1.25"
         cy="8.9999857"
         cx="35.004391"
         style="color:#363636;fill:#fefefe;fill-opacity:1" />
      <rect
         style="fill:#fefefe;stroke:none;stroke-width:3.99804;stroke-linecap:round"
         id="rect1018"
         width="1.9980392"
         height="2"
         x="27.007843"
         y="13" />
      <path
         id="path1020"
         style="fill:#fefefe;fill-opacity:1;stroke-width:2;stroke-linecap:round;stroke-linejoin:round"
         d="M 29 13 C 27.892 13 27 13.892 27 15 L 27 17 C 27 18.108 27.892 19 29 19 L 41 19 C 42.108 19 43 18.108 43 17 L 43 15 C 43 13.892 42.108 13 41 13 L 40.558594 13 C 40.492527 13.276292 40.418895 13.544657 40.330078 13.791016 C 40.265504 13.970131 40.190994 14.14136 40.082031 14.320312 C 40.633472 14.675667 41 15.292464 41 16 C 41 16.136591 40.985927 16.271005 40.958984 16.400391 C 40.958733 16.401639 40.959238 16.40305 40.958984 16.404297 C 40.799656 17.186875 40.186875 17.799656 39.404297 17.958984 C 39.273761 17.986429 39.137893 18 39 18 C 38.997362 18 38.994823 18.000011 38.992188 18 C 38.98401 18 38.976902 17.996192 38.96875 17.996094 C 38.818324 17.993652 38.672428 17.97239 38.53125 17.9375 C 38.46767 17.922265 38.408625 17.900099 38.347656 17.878906 C 38.264002 17.84926 38.183805 17.815536 38.105469 17.775391 C 38.042773 17.743631 37.980519 17.713786 37.921875 17.675781 C 37.853588 17.631332 37.792815 17.577556 37.730469 17.525391 C 37.633572 17.444267 37.545013 17.357632 37.464844 17.259766 C 37.413245 17.197248 37.362247 17.134791 37.318359 17.066406 C 37.303321 17.04278 37.281659 17.024277 37.267578 17 L 30 17 C 29.446 17 29 16.554 29 16 C 29 15.446 29.446 15 30 15 L 37.267578 15 C 37.427443 14.724368 37.655587 14.496788 37.921875 14.324219 C 37.811217 14.143518 37.735056 13.971694 37.669922 13.791016 C 37.581105 13.544656 37.507473 13.276292 37.441406 13 L 29 13 z " />
      <path
         id="path1024"
         fill="#f47750"
         d="m 39,9 c -0.55228,0 -1,0.44772 -1,1 0,0.55228 0.44772,4 1,4 0.55228,0 1,-3.4477 1,-4 0,-0.5523 -0.44772,-1 -1,-1 z m 0,6 c -0.55228,0 -1,0.44772 -1,1 0,0.55228 0.44772,1 1,1 0.55228,0 1,-0.44772 1,-1 0,-0.55228 -0.44772,-1 -1,-1 z"
         style="color:#363636" />
      <path
         style="color:#363636;font-style:normal;font-variant:normal;font-weight:normal;font-stretch:normal;font-size:medium;line-height:normal;font-family:sans-serif;font-variant-ligatures:normal;font-variant-position:normal;font-variant-caps:normal;font-variant-numeric:normal;font-variant-alternates:normal;font-variant-east-asian:normal;font-feature-settings:normal;font-variation-settings:normal;text-indent:0;text-align:start;text-decoration:none;text-decoration-line:none;text-decoration-style:solid;text-decoration-color:#000000;letter-spacing:normal;word-spacing:normal;text-transform:none;writing-mode:lr-tb;direction:ltr;text-orientation:mixed;dominant-baseline:auto;baseline-shift:baseline;text-anchor:start;white-space:normal;shape-padding:0;shape-margin:0;inline-size:0;clip-rule:nonzero;display:inline;overflow:visible;visibility:visible;isolation:auto;mix-blend-mode:normal;color-interpolation:sRGB;color-interpolation-filters:linearRGB;solid-color:#000000;solid-opacity:1;vector-effect:none;fill:#f47750;fill-opacity:1;fill-rule:nonzero;stroke:none;stroke-width:2;stroke-linecap:butt;stroke-linejoin:miter;stroke-miterlimit:4;stroke-dasharray:none;stroke-dashoffset:0;stroke-opacity:1;color-rendering:auto;image-rendering:auto;shape-rendering:auto;text-rendering:auto;enable-background:accumulate;stop-color:#000000"
         d="m 39,9 c -0.55228,0 -1,0.44772 -1,1 0,0.55228 0.44772,4 1,4 0.55228,0 1,-3.4477 1,-4 0,-0.5523 -0.44772,-1 -1,-1 z m 0,6 c -0.55228,0 -1,0.44772 -1,1 0,0.55228 0.44772,1 1,1 0.55228,0 1,-0.44772 1,-1 0,-0.55228 -0.44772,-1 -1,-1 z"
         id="path1063" />
    </g>
  </g>
  <g
     id="disk-quota-low"
     transform="translate(49)">
    <path
       id="path1140"
       d="M 0,0 V 22 H 22 V 0 Z"
       inkscape:connector-curvature="0"
       style="fill:none" />
    <g
       id="g1160">
      <path
         id="path1142"
         style="fill:#fefefe;stroke:none;stroke-width:4.77252;stroke-linecap:round"
         d="m 11,3 v 2 h 3.986328 c 0.552056,0 0.887824,0.456743 0.996094,1 l 0.996094,8 c 0.06529,0.327623 -0.120646,0.609479 -0.390625,0.792969 0.05014,0.06591 0.09495,0.135019 0.136718,0.207031 h 0.253907 c 1.104112,0 2.210681,-0.913486 1.99414,-2 L 17.974609,5 C 17.758068,3.913486 17.086534,3 15.982422,3 Z" />
      <rect
         style="fill:#fefefe;stroke:none;stroke-width:3.99804;stroke-linecap:round"
         id="rect1144"
         width="1.9980392"
         height="2"
         x="16.994118"
         y="13" />
      <rect
         style="fill:#fefefe;stroke:none;stroke-width:3.99804;stroke-linecap:round"
         id="rect1146"
         width="1.9980392"
         height="2"
         x="13.997059"
         y="15"
         ry="0.99901962" />
      <path
         id="path1148"
         style="fill:#fefefe;stroke:none;stroke-width:4.77252;stroke-linecap:round"
         d="M 11,3 V 5 H 7.013678 C 6.461622,5 6.124879,5.456743 6.016609,6 l -0.995118,8 c -0.10827,0.543258 0.443062,1 0.995118,1 H 5.021491 C 3.917379,15 2.810814,14.086514 3.027355,13 L 4.024423,5 C 4.240963,3.913486 4.912497,3 6.016609,3 Z"
         sodipodi:nodetypes="ccscccsccsc" />
      <path
         id="path1150"
         d="m 10.9244,6 a 3.75,3 0 0 0 -3.6777,3 3.75,3 0 0 0 3.75,3 3.75,3 0 0 0 3.75,-3 h -1.25 a 2.5,2 0 0 1 -2.5,2 2.5,2 0 0 1 -2.5,-2 2.5,2 0 0 1 2.4844,-2 2.5,2 0 0 1 0.0156,0 V 6 a 3.75,3 0 0 0 -0.0723,0 z"
         style="color:#363636;fill:#fdbc4b;fill-opacity:1" />
      <path
         id="path1152"
         opacity="0.35"
         fill="currentColor"
         class="ColorScheme-Text"
         d="M 10.9844,7 A 2.5,2 0 0 0 8.5,9 2.5,2 0 0 0 11,11 2.5,2 0 0 0 13.5,9 h -2 C 11.223,9 11,8.777 11,8.5 V 7 a 2.5,2 0 0 0 -0.0156,0 z"
         style="fill:#fdbc4b;fill-opacity:1" />
      <ellipse
         id="ellipse1154"
         ry="1"
         rx="1.25"
         cy="8.9999857"
         cx="11.004391"
         style="color:#363636;fill:#fdbc4b;fill-opacity:1" />
      <rect
         style="fill:#fefefe;stroke:none;stroke-width:3.99804;stroke-linecap:round"
         id="rect1156"
         width="1.9980392"
         height="2"
         x="3.007843"
         y="13" />
      <path
         id="path1158"
         style="opacity:1;fill:#fefefe;fill-opacity:1;stroke-width:2;stroke-linecap:round;stroke-linejoin:round"
         d="m 5,13 c -1.108,0 -2,0.892 -2,2 v 2 c 0,1.108 0.892,2 2,2 h 12 c 1.108,0 2,-0.892 2,-2 v -2 c 0,-1.108 -0.892,-2 -2,-2 z m 9.992188,1 H 15 c 1.108,0 2,0.892 2,2 0,1.108 -0.892,2 -2,2 h -0.0078 c -0.74107,0 -1.379049,-0.404201 -1.72461,-1 H 6 C 5.446,17 5,16.554 5,16 5,15.446 5.446,15 6,15 h 7.267578 c 0.345561,-0.595799 0.98354,-1 1.72461,-1 z" />
    </g>
  </g>
  <g
     id="disk-quota-high"
     transform="translate(74)">
    <path
       id="path1164"
       d="M 0,0 V 22 H 22 V 0 Z"
       inkscape:connector-curvature="0"
       style="fill:none" />
    <g
       id="g1184">
      <path
         id="path1166"
         style="fill:#fefefe;stroke:none;stroke-width:4.77252;stroke-linecap:round"
         d="m 11,3 v 2 h 3.986328 c 0.552056,0 0.887824,0.456743 0.996094,1 l 0.996094,8 c 0.06529,0.327623 -0.120646,0.609479 -0.390625,0.792969 0.05014,0.06591 0.09495,0.135019 0.136718,0.207031 h 0.253907 c 1.104112,0 2.210681,-0.913486 1.99414,-2 L 17.974609,5 C 17.758068,3.913486 17.086534,3 15.982422,3 Z" />
      <rect
         style="fill:#fefefe;stroke:none;stroke-width:3.99804;stroke-linecap:round"
         id="rect1168"
         width="1.9980392"
         height="2"
         x="16.994118"
         y="13" />
      <rect
         style="fill:#fefefe;stroke:none;stroke-width:3.99804;stroke-linecap:round"
         id="rect1170"
         width="1.9980392"
         height="2"
         x="13.997059"
         y="15"
         ry="0.99901962" />
      <path
         id="path1172"
         style="fill:#fefefe;stroke:none;stroke-width:4.77252;stroke-linecap:round"
         d="M 11,3 V 5 H 7.013678 C 6.461622,5 6.124879,5.456743 6.016609,6 l -0.995118,8 c -0.10827,0.543258 0.443062,1 0.995118,1 H 5.021491 C 3.917379,15 2.810814,14.086514 3.027355,13 L 4.024423,5 C 4.240963,3.913486 4.912497,3 6.016609,3 Z"
         sodipodi:nodetypes="ccscccsccsc" />
      <path
         id="path1174"
         d="m 10.9244,6 a 3.75,3 0 0 0 -3.6777,3 3.75,3 0 0 0 3.75,3 3.75,3 0 0 0 3.75,-3 h -1.25 a 2.5,2 0 0 1 -2.5,2 2.5,2 0 0 1 -2.5,-2 2.5,2 0 0 1 2.4844,-2 2.5,2 0 0 1 0.0156,0 V 6 a 3.75,3 0 0 0 -0.0723,0 z"
         style="color:#363636;fill:#e74c3c;fill-opacity:1" />
      <path
         id="path1176"
         opacity="0.35"
         fill="currentColor"
         class="ColorScheme-Text"
         d="M 10.9844,7 A 2.5,2 0 0 0 8.5,9 2.5,2 0 0 0 11,11 2.5,2 0 0 0 13.5,9 h -2 C 11.223,9 11,8.777 11,8.5 V 7 a 2.5,2 0 0 0 -0.0156,0 z"
         style="fill:#e74c3c;fill-opacity:1" />
      <ellipse
         id="ellipse1178"
         ry="1"
         rx="1.25"
         cy="8.9999857"
         cx="11.004391"
         style="color:#363636;fill:#e74c3c;fill-opacity:1" />
      <rect
         style="fill:#fefefe;stroke:none;stroke-width:3.99804;stroke-linecap:round"
         id="rect1180"
         width="1.9980392"
         height="2"
         x="3.007843"
         y="13" />
      <path
         id="path1182"
         style="opacity:1;fill:#fefefe;fill-opacity:1;stroke-width:2;stroke-linecap:round;stroke-linejoin:round"
         d="m 5,13 c -1.108,0 -2,0.892 -2,2 v 2 c 0,1.108 0.892,2 2,2 h 12 c 1.108,0 2,-0.892 2,-2 v -2 c 0,-1.108 -0.892,-2 -2,-2 z m 9.992188,1 H 15 c 1.108,0 2,0.892 2,2 0,1.108 -0.892,2 -2,2 h -0.0078 c -0.74107,0 -1.379049,-0.404201 -1.72461,-1 H 6 C 5.446,17 5,16.554 5,16 5,15.446 5.446,15 6,15 h 7.267578 c 0.345561,-0.595799 0.98354,-1 1.72461,-1 z" />
    </g>
  </g>
  <g
     id="disk-quota-critical"
     transform="translate(75.0033)">
    <rect
       id="rect1188"
       stroke-width="1.76"
       opacity="0"
       height="22"
       width="22"
       y="0"
       x="24.003988"
       style="color:#363636;fill:#363636" />
    <g
       id="g1210">
      <path
         id="path1190"
         style="fill:#fefefe;stroke:none;stroke-width:4.77252;stroke-linecap:round"
         d="m 35,3 v 2 h 3.986328 c 0.552056,0 0.887824,0.456743 0.996094,1 l 0.310547,2.4921875 C 40.721039,8.8608776 41,9.3996007 41,10 c 0,0.273183 -0.03282,0.56161 -0.08594,0.982422 -0.04125,0.326781 -0.106495,0.717048 -0.173828,1.099609 L 40.331041,14 c 0.06529,0.327623 0.526829,0.609479 0.25685,0.792969 0.05014,0.06591 0.09495,0.135019 0.136718,0.207031 h 0.253907 c 1.104112,0 2.210681,-0.913486 1.99414,-2 L 41.974609,5 C 41.758068,3.913486 41.086534,3 39.982422,3 Z"
         sodipodi:nodetypes="ccsccssccccsccsc" />
      <rect
         style="fill:#fefefe;stroke:none;stroke-width:3.99804;stroke-linecap:round"
         id="rect1192"
         width="1.9980392"
         height="2"
         x="40.994118"
         y="13" />
      <path
         id="path1194"
         style="fill:#fefefe;stroke:none;stroke-width:4.77252;stroke-linecap:round"
         d="m 35,3 v 2 h -3.986322 c -0.552056,0 -0.888799,0.456743 -0.997069,1 l -0.995118,8 c -0.10827,0.543258 0.443062,1 0.995118,1 h -0.995118 c -1.104112,0 -2.210677,-0.913486 -1.994136,-2 l 0.997068,-8 c 0.21654,-1.086514 0.888074,-2 1.992186,-2 z"
         sodipodi:nodetypes="ccscccsccsc" />
      <path
         id="path1196"
         d="m 34.9244,6 a 3.75,3 0 0 0 -3.6777,3 3.75,3 0 0 0 3.75,3 3.75,3 0 0 0 3.75,-3 h -1.25 a 2.5,2 0 0 1 -2.5,2 2.5,2 0 0 1 -2.5,-2 2.5,2 0 0 1 2.4844,-2 2.5,2 0 0 1 0.0156,0 V 6 a 3.75,3 0 0 0 -0.0723,0 z"
         style="color:#363636;fill:#e74c3c;fill-opacity:1" />
      <path
         id="path1198"
         opacity="0.35"
         fill="currentColor"
         class="ColorScheme-Text"
         d="M 34.9844,7 A 2.5,2 0 0 0 32.5,9 2.5,2 0 0 0 35,11 2.5,2 0 0 0 37.5,9 h -2 C 35.223,9 35,8.777 35,8.5 V 7 a 2.5,2 0 0 0 -0.0156,0 z"
         style="fill:#e74c3c;fill-opacity:1" />
      <ellipse
         id="ellipse1200"
         ry="1"
         rx="1.25"
         cy="8.9999857"
         cx="35.004391"
         style="color:#363636;fill:#e74c3c;fill-opacity:1" />
      <rect
         style="fill:#fefefe;stroke:none;stroke-width:3.99804;stroke-linecap:round"
         id="rect1202"
         width="1.9980392"
         height="2"
         x="27.007843"
         y="13" />
      <path
         id="path1204"
         style="fill:#fefefe;fill-opacity:1;stroke-width:2;stroke-linecap:round;stroke-linejoin:round"
         d="m 29,13 c -1.108,0 -2,0.892 -2,2 v 2 c 0,1.108 0.892,2 2,2 h 12 c 1.108,0 2,-0.892 2,-2 v -2 c 0,-1.108 -0.892,-2 -2,-2 h -0.441406 c -0.06607,0.276292 -0.139699,0.544657 -0.228516,0.791016 -0.06457,0.179115 -0.139084,0.350344 -0.248047,0.529296 C 40.633472,14.675667 41,15.292464 41,16 c 0,0.136591 -0.01407,0.271005 -0.04102,0.400391 -2.51e-4,0.0012 2.54e-4,0.0027 0,0.0039 -0.159328,0.782578 -0.772109,1.395359 -1.554687,1.554687 C 39.273761,17.986429 39.137893,18 39,18 c -0.0026,0 -0.0052,1.1e-5 -0.0078,0 -0.0082,0 -0.01529,-0.0038 -0.02344,-0.0039 -0.150426,-0.0024 -0.296322,-0.0237 -0.4375,-0.05859 -0.06358,-0.01524 -0.122625,-0.0374 -0.183594,-0.05859 -0.08365,-0.02965 -0.163851,-0.06337 -0.242187,-0.103515 -0.0627,-0.03176 -0.12495,-0.06161 -0.183594,-0.09961 -0.06829,-0.04445 -0.12906,-0.09822 -0.191406,-0.15039 -0.0969,-0.08112 -0.185456,-0.167759 -0.265625,-0.265625 -0.0516,-0.06252 -0.102597,-0.124975 -0.146485,-0.19336 -0.01504,-0.02363 -0.0367,-0.04213 -0.05078,-0.06641 H 30 c -0.554,0 -1,-0.446 -1,-1 0,-0.554 0.446,-1 1,-1 h 7.267578 c 0.159865,-0.275632 0.388009,-0.503212 0.654297,-0.675781 C 37.811217,14.143518 37.735056,13.971694 37.669922,13.791016 37.581105,13.544656 37.507473,13.276292 37.441406,13 Z" />
      <path
         id="path1206"
         fill="#f47750"
         d="m 39,9 c -0.55228,0 -1,0.44772 -1,1 0,0.55228 0.44772,4 1,4 0.55228,0 1,-3.4477 1,-4 0,-0.5523 -0.44772,-1 -1,-1 z m 0,6 c -0.55228,0 -1,0.44772 -1,1 0,0.55228 0.44772,1 1,1 0.55228,0 1,-0.44772 1,-1 0,-0.55228 -0.44772,-1 -1,-1 z"
         style="color:#363636" />
      <path
         style="color:#363636;font-style:normal;font-variant:normal;font-weight:normal;font-stretch:normal;font-size:medium;line-height:normal;font-family:sans-serif;font-variant-ligatures:normal;font-variant-position:normal;font-variant-caps:normal;font-variant-numeric:normal;font-variant-alternates:normal;font-variant-east-asian:normal;font-feature-settings:normal;font-variation-settings:normal;text-indent:0;text-align:start;text-decoration:none;text-decoration-line:none;text-decoration-style:solid;text-decoration-color:#000000;letter-spacing:normal;word-spacing:normal;text-transform:none;writing-mode:lr-tb;direction:ltr;text-orientation:mixed;dominant-baseline:auto;baseline-shift:baseline;text-anchor:start;white-space:normal;shape-padding:0;shape-margin:0;inline-size:0;clip-rule:nonzero;display:inline;overflow:visible;visibility:visible;isolation:auto;mix-blend-mode:normal;color-interpolation:sRGB;color-interpolation-filters:linearRGB;solid-color:#000000;solid-opacity:1;vector-effect:none;fill:#e74c3c;fill-opacity:1;fill-rule:nonzero;stroke:none;stroke-width:2;stroke-linecap:butt;stroke-linejoin:miter;stroke-miterlimit:4;stroke-dasharray:none;stroke-dashoffset:0;stroke-opacity:1;color-rendering:auto;image-rendering:auto;shape-rendering:auto;text-rendering:auto;enable-background:accumulate;stop-color:#000000"
         d="m 39,9 c -0.55228,0 -1,0.44772 -1,1 0,0.55228 0.44772,4 1,4 0.55228,0 1,-3.4477 1,-4 0,-0.5523 -0.44772,-1 -1,-1 z m 0,6 c -0.55228,0 -1,0.44772 -1,1 0,0.55228 0.44772,1 1,1 0.55228,0 1,-0.44772 1,-1 0,-0.55228 -0.44772,-1 -1,-1 z"
         id="path1208" />
    </g>
  </g>
</svg>
