<?xml version="1.0" encoding="UTF-8" standalone="no"?>
<svg
   xmlns:dc="http://purl.org/dc/elements/1.1/"
   xmlns:cc="http://creativecommons.org/ns#"
   xmlns:rdf="http://www.w3.org/1999/02/22-rdf-syntax-ns#"
   xmlns:svg="http://www.w3.org/2000/svg"
   xmlns="http://www.w3.org/2000/svg"
   xmlns:sodipodi="http://sodipodi.sourceforge.net/DTD/sodipodi-0.dtd"
   xmlns:inkscape="http://www.inkscape.org/namespaces/inkscape"
   width="22"
   height="22"
   version="1.1"
   id="svg21"
   sodipodi:docname="kdf.svg"
   inkscape:version="1.0.2 (e86c870879, 2021-01-15)">
  <metadata
     id="metadata25">
    <rdf:RDF>
      <cc:Work
         rdf:about="">
        <dc:format>image/svg+xml</dc:format>
        <dc:type
           rdf:resource="http://purl.org/dc/dcmitype/StillImage" />
        <dc:title />
      </cc:Work>
    </rdf:RDF>
  </metadata>
  <sodipodi:namedview
     pagecolor="#c8c8c8"
     bordercolor="#666666"
     borderopacity="1"
     objecttolerance="10"
     gridtolerance="10"
     guidetolerance="10"
     inkscape:pageopacity="0"
     inkscape:pageshadow="2"
     inkscape:window-width="1920"
     inkscape:window-height="940"
     id="namedview23"
     showgrid="true"
     inkscape:zoom="8.8068182"
     inkscape:cx="4.9479225"
     inkscape:cy="6.3806298"
     inkscape:window-x="0"
     inkscape:window-y="38"
     inkscape:window-maximized="1"
     inkscape:current-layer="svg21"
     inkscape:document-rotation="0">
    <inkscape:grid
       type="xygrid"
       id="grid850" />
  </sodipodi:namedview>
  <defs
     id="defs3">
    <style
       id="current-color-scheme"
       type="text/css">.ColorScheme-Text { color:#dedede; } .ColorScheme-Highlight { color:#5294e2; } .ColorScheme-ButtonBackground { color:#dedede; }</style>
  </defs>
  <rect
     class="ColorScheme-Text"
     x="-20.43"
     y="-19.39"
     width="16"
     height="16"
     ry="0"
     opacity="0"
     id="rect5" />
  <g
     id="kdf"
     transform="translate(22,-10)">
    <path
       id="path9"
       d="M -22,10 V 32 H 0 V 10 Z"
       inkscape:connector-curvature="0"
       style="fill:none" />
    <g
       id="g905"
       transform="translate(5,-30)">
      <path
         id="path1137"
         style="fill:#fefefe;stroke:none;stroke-width:4.27408;stroke-linecap:round"
         d="m -21.994118,51 c -1.106914,0 -1.99804,0.892 -1.99804,2 v 4 c 0,1.108 0.891126,2 1.99804,2 h 11.988236 c 1.1069139,0 1.9980394,-0.892 1.9980394,-2 v -4 c 0,-1.108 -0.8911255,-2 -1.9980394,-2 z m 0.99902,2 h 9.990196 c 0.553458,0 0.99902,0.446 0.99902,1 v 2 c 0,0.554 -0.445562,1 -0.99902,1 h -9.990196 c -0.553457,0 -0.99902,-0.446 -0.99902,-1 v -2 c 0,-0.554 0.445563,-1 0.99902,-1 z" />
      <path
         id="path1139"
         style="fill:#fefefe;stroke:none;stroke-width:4.77252;stroke-linecap:round"
         d="m -16,44 v 2 h 3.986322 c 0.552056,0 0.888799,0.456743 0.997069,1 l 0.995118,5 c 0.1082701,0.543258 -0.443062,1 -0.995118,1 h 0.995118 c 1.1041119,0 2.2106771,-0.913486 1.9941365,-2 l -0.9970686,-5 c -0.2165404,-1.086514 -0.8880734,-2 -1.9921859,-2 z"
         sodipodi:nodetypes="ccscccsccsc" />
      <rect
         style="fill:#fefefe;stroke:none;stroke-width:3.99804;stroke-linecap:round"
         id="rect1141"
         width="1.9980392"
         height="2"
         x="-23.992157"
         y="51" />
      <rect
         style="fill:#fefefe;stroke:none;stroke-width:3.99804;stroke-linecap:round"
         id="rect1143"
         width="1.9980392"
         height="2"
         x="-10.005882"
         y="51" />
      <rect
         style="fill:#fefefe;stroke:none;stroke-width:3.99804;stroke-linecap:round"
         id="rect1145"
         width="1.9980392"
         height="2"
         x="-13.002941"
         y="54" />
      <rect
         style="fill:#fefefe;stroke:none;stroke-width:3.99804;stroke-linecap:round"
         id="rect1147"
         width="1.9980392"
         height="2"
         x="-16"
         y="54" />
      <path
         id="path896"
         style="fill:#fefefe;stroke:none;stroke-width:4.77252;stroke-linecap:round"
         d="m -16,44 v 2 h -3.986322 c -0.552056,0 -0.888799,0.456743 -0.997069,1 l -0.995118,5 c -0.10827,0.543258 0.443062,1 0.995118,1 h -0.995118 c -1.104112,0 -2.210677,-0.913486 -1.994136,-2 l 0.997068,-5 c 0.21654,-1.086514 0.888074,-2 1.992186,-2 z"
         sodipodi:nodetypes="ccscccsccsc" />
    </g>
  </g>
  <g
     id="16-16-kdf"
     transform="translate(24,-7)">
    <path
       id="path17-3"
       d="m -42,13 v 16 h 16 V 13 Z"
       inkscape:connector-curvature="0"
       style="fill:none" />
    <g
       id="g975"
       transform="translate(-18,-30)">
      <path
         id="path960"
         style="fill:#fefefe;stroke:none;stroke-width:4.27408;stroke-linecap:round"
         d="m -21.994118,51 c -1.106914,0 -1.99804,0.892 -1.99804,2 v 4 c 0,1.108 0.891126,2 1.99804,2 h 11.988236 c 1.1069139,0 1.9980394,-0.892 1.9980394,-2 v -4 c 0,-1.108 -0.8911255,-2 -1.9980394,-2 z m 0.99902,2 h 9.990196 c 0.553458,0 0.99902,0.446 0.99902,1 v 2 c 0,0.554 -0.445562,1 -0.99902,1 h -9.990196 c -0.553457,0 -0.99902,-0.446 -0.99902,-1 v -2 c 0,-0.554 0.445563,-1 0.99902,-1 z" />
      <path
         id="path962"
         style="fill:#fefefe;stroke:none;stroke-width:4.77252;stroke-linecap:round"
         d="m -16,44 v 2 h 3.986322 c 0.552056,0 0.888799,0.456743 0.997069,1 l 0.995118,5 c 0.1082701,0.543258 -0.443062,1 -0.995118,1 h 0.995118 c 1.1041119,0 2.2106771,-0.913486 1.9941365,-2 l -0.9970686,-5 c -0.2165404,-1.086514 -0.8880734,-2 -1.9921859,-2 z"
         sodipodi:nodetypes="ccscccsccsc" />
      <rect
         style="fill:#fefefe;stroke:none;stroke-width:3.99804;stroke-linecap:round"
         id="rect964"
         width="1.9980392"
         height="2"
         x="-23.992157"
         y="51" />
      <rect
         style="fill:#fefefe;stroke:none;stroke-width:3.99804;stroke-linecap:round"
         id="rect966"
         width="1.9980392"
         height="2"
         x="-10.005882"
         y="51" />
      <rect
         style="fill:#fefefe;stroke:none;stroke-width:3.99804;stroke-linecap:round"
         id="rect968"
         width="1.9980392"
         height="2"
         x="-13.002941"
         y="54" />
      <rect
         style="fill:#fefefe;stroke:none;stroke-width:3.99804;stroke-linecap:round"
         id="rect970"
         width="1.9980392"
         height="2"
         x="-16"
         y="54" />
      <path
         id="path973"
         style="fill:#fefefe;stroke:none;stroke-width:4.77252;stroke-linecap:round"
         d="m -16,44 v 2 h -3.986322 c -0.552056,0 -0.888799,0.456743 -0.997069,1 l -0.995118,5 c -0.10827,0.543258 0.443062,1 0.995118,1 h -0.995118 c -1.104112,0 -2.210677,-0.913486 -1.994136,-2 l 0.997068,-5 c 0.21654,-1.086514 0.888074,-2 1.992186,-2 z"
         sodipodi:nodetypes="ccscccsccsc" />
    </g>
  </g>
</svg>
