<?xml version="1.0" encoding="UTF-8" standalone="no"?>
<svg
   xmlns:dc="http://purl.org/dc/elements/1.1/"
   xmlns:cc="http://creativecommons.org/ns#"
   xmlns:rdf="http://www.w3.org/1999/02/22-rdf-syntax-ns#"
   xmlns:svg="http://www.w3.org/2000/svg"
   xmlns="http://www.w3.org/2000/svg"
   xmlns:sodipodi="http://sodipodi.sourceforge.net/DTD/sodipodi-0.dtd"
   xmlns:inkscape="http://www.inkscape.org/namespaces/inkscape"
   id="svg"
   inkscape:version="1.0.1 (3bc2e813f5, 2020-09-07)"
   sodipodi:docname="device.svg"
   version="1.1"
   viewBox="0 0 22 22">
  <metadata
     id="metadata28">
    <rdf:RDF>
      <cc:Work
         rdf:about="">
        <dc:format>image/svg+xml</dc:format>
        <dc:type
           rdf:resource="http://purl.org/dc/dcmitype/StillImage" />
        <dc:title />
      </cc:Work>
    </rdf:RDF>
  </metadata>
  <sodipodi:namedview
     id="namedview33"
     bordercolor="#666666"
     borderopacity="1"
     gridtolerance="10"
     guidetolerance="10"
     inkscape:bbox-nodes="true"
     inkscape:current-layer="svg"
     inkscape:cx="22.441696"
     inkscape:cy="-9.8339946"
     inkscape:object-nodes="true"
     inkscape:object-paths="true"
     inkscape:pageopacity="0"
     inkscape:pageshadow="2"
     inkscape:snap-bbox="true"
     inkscape:snap-bbox-edge-midpoints="true"
     inkscape:snap-intersection-paths="true"
     inkscape:snap-midpoints="true"
     inkscape:snap-nodes="true"
     inkscape:snap-smooth-nodes="true"
     inkscape:window-height="932"
     inkscape:window-maximized="1"
     inkscape:window-width="1920"
     inkscape:window-x="0"
     inkscape:window-y="36"
     inkscape:zoom="3.7926637"
     objecttolerance="10"
     pagecolor="#c8c8c8"
     showgrid="true"
     showguides="false"
     inkscape:document-rotation="0">
    <inkscape:grid
       id="grid842"
       type="xygrid" />
  </sodipodi:namedview>
  <defs
     id="defs3">
    <style
       id="current-color-scheme"
       type="text/css">.ColorScheme-Text { color:#dedede; } .ColorScheme-Highlight { color:#5294e2; } .ColorScheme-ButtonBackground { color:#dedede; }</style>
  </defs>
  <g
     id="22-22-device-notifier">
    <g
       id="g1044"
       transform="translate(25)">
      <path
         id="rect880"
         style="fill:#fefefe;stroke:none;stroke-width:2.94492;stroke-linecap:round"
         d="m -19,6 c -0.554,0 -1,0.446 -1,1 v 13 c 0,0.554 0.446,1 1,1 h 6.585938 L -13.121094,20.292969 -14.414062,19 H -18 V 8 h 7 v 8.757812 l 2,-2 V 7 C -9,6.446 -9.446,6 -10,6 Z" />
      <path
         style="color:#000000;font-style:normal;font-variant:normal;font-weight:normal;font-stretch:normal;font-size:medium;line-height:normal;font-family:sans-serif;font-variant-ligatures:normal;font-variant-position:normal;font-variant-caps:normal;font-variant-numeric:normal;font-variant-alternates:normal;font-variant-east-asian:normal;font-feature-settings:normal;font-variation-settings:normal;text-indent:0;text-align:start;text-decoration:none;text-decoration-line:none;text-decoration-style:solid;text-decoration-color:#000000;letter-spacing:normal;word-spacing:normal;text-transform:none;writing-mode:lr-tb;direction:ltr;text-orientation:mixed;dominant-baseline:auto;baseline-shift:baseline;text-anchor:start;white-space:normal;shape-padding:0;shape-margin:0;inline-size:0;clip-rule:nonzero;display:inline;overflow:visible;visibility:visible;isolation:auto;mix-blend-mode:normal;color-interpolation:sRGB;color-interpolation-filters:linearRGB;solid-color:#000000;solid-opacity:1;vector-effect:none;fill:#fefefe;fill-opacity:1;fill-rule:nonzero;stroke:none;stroke-width:2;stroke-linecap:round;stroke-linejoin:miter;stroke-miterlimit:4;stroke-dasharray:none;stroke-dashoffset:0;stroke-opacity:1;color-rendering:auto;image-rendering:auto;shape-rendering:auto;text-rendering:auto;enable-background:accumulate;stop-color:#000000"
         d="M -4.636719,11.808594 -11,18.171875 l -2.828126,-2.828125 -1.414062,1.414063 2.828125,2.828124 L -11,21 l 1.414062,-1.414063 6.363281,-6.363281 z"
         id="path929" />
      <path
         id="rect1023"
         style="opacity:1;fill:#fefefe;stroke:none;stroke-width:1.94538;stroke-linecap:round;stroke-miterlimit:4;stroke-dasharray:none;stroke-opacity:1"
         d="m -18,1 c -0.554,0 -1,0.446 -1,1 v 3 1 h 1 1 V 3 h 5 v 3 h 1 1 V 5 2 c 0,-0.554 -0.446,-1 -1,-1 z" />
      <rect
         style="fill:#fefefe;stroke:none;stroke-width:5.19615;stroke-linecap:round"
         id="rect1038"
         width="3"
         height="1"
         x="-16"
         y="4" />
    </g>
    <rect
       y="1.2617187e-05"
       x="9.9999997e-06"
       height="21.999985"
       width="21.999985"
       id="rect4157"
       style="opacity:0.2;fill:none;fill-opacity:1;stroke:none" />
  </g>
  <g
     id="device-notifier">
    <g
       id="g1151"
       transform="translate(-37)">
      <path
         id="path1111"
         style="fill:#fefefe;stroke:none;stroke-width:4.49259;stroke-linecap:round"
         d="M 10 -29 C 8.892 -29 8 -28.108 8 -27 L 8 -7 C 8 -5.892 8.892 -5 10 -5 L 19.171875 -5 L 17.171875 -7 L 11 -7 C 10.446 -7 10 -7.446 10 -8 L 10 -26 C 10 -26.554 10.446 -27 11 -27 L 21 -27 C 21.554 -27 22 -26.554 22 -26 L 22 -10.65625 L 24 -12.65625 L 24 -27 C 24 -28.108 23.108 -29 22 -29 L 10 -29 z "
         transform="translate(37)" />
      <g
         id="g1166"
         style="opacity:1">
        <path
           style="color:#000000;font-style:normal;font-variant:normal;font-weight:normal;font-stretch:normal;font-size:medium;line-height:normal;font-family:sans-serif;font-variant-ligatures:normal;font-variant-position:normal;font-variant-caps:normal;font-variant-numeric:normal;font-variant-alternates:normal;font-variant-east-asian:normal;font-feature-settings:normal;font-variation-settings:normal;text-indent:0;text-align:start;text-decoration:none;text-decoration-line:none;text-decoration-style:solid;text-decoration-color:#000000;letter-spacing:normal;word-spacing:normal;text-transform:none;writing-mode:lr-tb;direction:ltr;text-orientation:mixed;dominant-baseline:auto;baseline-shift:baseline;text-anchor:start;white-space:normal;shape-padding:0;shape-margin:0;inline-size:0;clip-rule:nonzero;display:inline;overflow:visible;visibility:visible;isolation:auto;mix-blend-mode:normal;color-interpolation:sRGB;color-interpolation-filters:linearRGB;solid-color:#000000;solid-opacity:1;vector-effect:none;fill:#fefefe;fill-opacity:1;fill-rule:nonzero;stroke:none;stroke-width:4;stroke-linecap:round;stroke-linejoin:miter;stroke-miterlimit:4;stroke-dasharray:none;stroke-dashoffset:0;stroke-opacity:1.0;color-rendering:auto;image-rendering:auto;shape-rendering:auto;text-rendering:auto;enable-background:accumulate;stop-color:#000000;stop-opacity:1;"
           d="M 72.435547,-21.263672 59,-7.828125 l -5.65625,-5.65625 -1.414062,1.414062 5.65625,5.6562505 L 59,-5 60.414062,-6.4140625 73.849609,-19.849609 Z"
           id="path1168" />
      </g>
      <path
         id="path1113"
         style="fill:#fefefe;stroke:none;stroke-width:2;stroke-linecap:round;stroke-miterlimit:4;stroke-dasharray:none;stroke-opacity:1"
         d="m 48,-35 c -0.554,0 -1,0.446 -1,1 v 4 1 h 1 1 v -4 h 8 v 4 h 1 1 v -1 -4 c 0,-0.554 -0.446,-1 -1,-1 z" />
      <path
         id="rect1115"
         style="fill:#fefefe;stroke:none;stroke-width:3.10454;stroke-linecap:round;stroke-miterlimit:4;stroke-dasharray:none;stroke-opacity:1"
         d="m 51,-32 h 4 v 2.000001 h -4 z" />
    </g>
    <rect
       y="-35.999996"
       x="0"
       height="31.999985"
       width="31.999985"
       id="rect4151"
       style="opacity:0.2;fill:none;fill-opacity:1;stroke:none" />
  </g>
  <g
     id="16-16-device-notifier">
    <rect
       style="opacity:0.2;fill:none;fill-opacity:1;stroke:none"
       id="rect4182"
       width="15.999985"
       height="15.999985"
       x="0"
       y="26.000002" />
    <g
       transform="translate(-7.6293945e-6)"
       id="g999">
      <path
         inkscape:connector-curvature="0"
         style="opacity:1;fill:#fefefe;fill-opacity:1;stroke:none;stroke-width:1.28900659;stroke-miterlimit:4;stroke-dasharray:none;stroke-opacity:1"
         d="m 5,31 v 9 h 6 v -9 z m 1,1 h 4 v 7.076172 H 6 Z"
         id="rect945" />
      <path
         style="opacity:1;fill:#fefefe;fill-opacity:1;stroke:none;stroke-width:0.70164645;stroke-miterlimit:4;stroke-dasharray:none;stroke-opacity:1"
         d="M 6 29 L 6 32 L 10 32 L 10 29 L 6 29 z M 7 30 L 9 30 L 9 31 L 7 31 L 7 30 z "
         transform="translate(7.6293945e-6)"
         id="rect979" />
    </g>
  </g>
</svg>
