<?xml version="1.0" encoding="UTF-8" standalone="no"?>
<svg
   id="svg86"
   viewBox="0 0 22 22"
   version="1.1"
   height="22"
   width="22"
   sodipodi:docname="disk.svg"
   inkscape:version="1.1 (c4e8f9ed74, 2021-05-24)"
   xmlns:inkscape="http://www.inkscape.org/namespaces/inkscape"
   xmlns:sodipodi="http://sodipodi.sourceforge.net/DTD/sodipodi-0.dtd"
   xmlns="http://www.w3.org/2000/svg"
   xmlns:svg="http://www.w3.org/2000/svg"
   xmlns:rdf="http://www.w3.org/1999/02/22-rdf-syntax-ns#"
   xmlns:cc="http://creativecommons.org/ns#"
   xmlns:dc="http://purl.org/dc/elements/1.1/">
  <sodipodi:namedview
     pagecolor="#c8c8c8"
     bordercolor="#666666"
     borderopacity="1"
     objecttolerance="10"
     gridtolerance="10"
     guidetolerance="10"
     inkscape:pageopacity="0"
     inkscape:pageshadow="2"
     inkscape:window-width="1920"
     inkscape:window-height="998"
     id="namedview48"
     showgrid="true"
     inkscape:snap-smooth-nodes="true"
     inkscape:snap-bbox="true"
     inkscape:bbox-paths="false"
     inkscape:snap-bbox-edge-midpoints="true"
     inkscape:bbox-nodes="true"
     inkscape:zoom="5.656854"
     inkscape:cx="40.923807"
     inkscape:cy="-28.284272"
     inkscape:window-x="0"
     inkscape:window-y="0"
     inkscape:window-maximized="1"
     inkscape:current-layer="svg86"
     inkscape:pagecheckerboard="0">
    <inkscape:grid
       type="xygrid"
       id="grid909" />
  </sodipodi:namedview>
  <metadata
     id="metadata88">
    <rdf:RDF>
      <cc:Work
         rdf:about="">
        <dc:format>image/svg+xml</dc:format>
        <dc:type
           rdf:resource="http://purl.org/dc/dcmitype/StillImage" />
        <dc:title />
      </cc:Work>
    </rdf:RDF>
  </metadata>
  <defs
     id="defs5">
    <style
       type="text/css"
       id="current-color-scheme">.ColorScheme-Text {
        color:#363636;
      }
      .ColorScheme-Background {
        color:#efefef;
      }
      .ColorScheme-Highlight {
        color:#3498db;
      }
      .ColorScheme-ViewText {
        color:#363636;
      }
      .ColorScheme-ViewBackground {
        color:#fcfcfc;
      }
      .ColorScheme-ViewHover {
        color:#93cee9;
      }
      .ColorScheme-ViewFocus{
        color:#3daee9;
      }
      .ColorScheme-ButtonText {
        color:#363636;
      }
      .ColorScheme-ButtonBackground {
        color:#efefef;
      }
      .ColorScheme-ButtonHover {
        color:#93cee9;
      }
      .ColorScheme-ButtonFocus{
        color:#3daee9;
      }
      .ColorScheme-NegativeText{
        color:#e74c3c;
      }</style>
  </defs>
  <g
     id="disk-quota">
    <path
       id="path9-3"
       d="M 0,0 V 22 H 22 V 0 Z"
       inkscape:connector-curvature="0"
       style="fill:none" />
    <g
       id="g1002">
      <path
         id="path1139"
         style="fill:#363636;stroke:none;stroke-width:4.77252;stroke-linecap:round;fill-opacity:1"
         d="m 11,2 v 2 h 5.011719 c 0.552056,0 0.887824,0.456743 0.996094,1 l 0.996094,10 c 0.06529,0.327623 -0.120646,0.609479 -0.390625,0.792969 0.05014,0.06591 0.09495,0.135019 0.136718,0.207031 h 0.253907 c 1.104112,0 2.210681,-0.913486 1.99414,-2 L 19,4 C 18.783459,2.913486 18.111925,2 17.007813,2 Z"
         sodipodi:nodetypes="ccsccccsccsc" />
      <rect
         style="fill:#363636;stroke:none;stroke-width:3.99804;stroke-linecap:round;fill-opacity:1"
         id="rect1143"
         width="1.9980392"
         height="2"
         x="18.003906"
         y="14" />
      <rect
         style="fill:#363636;stroke:none;stroke-width:3.99804;stroke-linecap:round;fill-opacity:1"
         id="rect1145"
         width="1.9980392"
         height="2"
         x="15.001961"
         y="16"
         ry="0.99901962" />
      <path
         id="path896"
         style="fill:#363636;stroke:none;stroke-width:4.77252;stroke-linecap:round;fill-opacity:1"
         d="M 11,2 V 4 H 5.989255 C 5.437199,4 5.100456,4.456743 4.992186,5 L 3.997068,15 c -0.10827,0.543258 0.443062,1 0.995118,1 H 3.997068 C 2.892956,16 1.786391,15.086514 2.002932,14 L 3,4 C 3.21654,2.913486 3.888074,2 4.992186,2 Z"
         sodipodi:nodetypes="ccscccsccsc" />
      <path
         id="path941"
         d="m 10.9244,6 a 3.75,3 0 0 0 -3.6777,3 3.75,3 0 0 0 3.75,3 3.75,3 0 0 0 3.75,-3 h -1.25 a 2.5,2 0 0 1 -2.5,2 2.5,2 0 0 1 -2.5,-2 2.5,2 0 0 1 2.4844,-2 2.5,2 0 0 1 0.0156,0 V 6 a 3.75,3 0 0 0 -0.0723,0 z"
         style="color:#363636;fill:#363636;fill-opacity:1" />
      <path
         id="path943"
         opacity="0.35"
         fill="currentColor"
         class="ColorScheme-Text"
         d="M 10.9844,7 A 2.5,2 0 0 0 8.5,9 2.5,2 0 0 0 11,11 2.5,2 0 0 0 13.5,9 h -2 C 11.223,9 11,8.777 11,8.5 V 7 a 2.5,2 0 0 0 -0.0156,0 z"
         style="fill:#363636;fill-opacity:1" />
      <ellipse
         id="ellipse945"
         ry="1"
         rx="1.25"
         cy="8.9999857"
         cx="11.004391"
         style="color:#363636;fill:#363636;fill-opacity:1" />
      <rect
         style="fill:#363636;stroke:none;stroke-width:3.99804;stroke-linecap:round;fill-opacity:1"
         id="rect1141"
         width="1.9980392"
         height="2"
         x="2"
         y="14" />
      <path
         id="rect974"
         style="opacity:1;fill:#363636;fill-opacity:1;stroke-width:2;stroke-linecap:round;stroke-linejoin:round"
         d="m 4,14 c -1.108,0 -2,0.892 -2,2 v 2 c 0,1.108 0.892,2 2,2 h 14 c 1.108,0 2,-0.892 2,-2 v -2 c 0,-1.108 -0.892,-2 -2,-2 z m 11.992188,1 H 16 c 1.108,0 2,0.892 2,2 0,1.108 -0.892,2 -2,2 h -0.0078 c -0.74107,0 -1.379049,-0.404201 -1.72461,-1 H 5 C 4.446,18 4,17.554 4,17 4,16.446 4.446,16 5,16 h 9.267578 c 0.345561,-0.595799 0.98354,-1 1.72461,-1 z"
         sodipodi:nodetypes="sssssssssssssscssscs" />
    </g>
  </g>
  <g
     id="disk-quota-missing">
    <rect
       id="rect24"
       stroke-width="1.76"
       opacity="0"
       height="22"
       width="22"
       y="0"
       x="24.003988"
       style="color:#363636;fill:#363636" />
    <g
       id="g1083">
      <path
         id="path1004"
         style="fill:#363636;stroke:none;stroke-width:4.77252;stroke-linecap:round;fill-opacity:1"
         d="m 35,2 v 2 h 5.011719 c 0.552056,0 0.887824,0.456743 0.996094,1 L 41.31836,9.4921875 C 41.74643,9.8608776 42.025391,10.399601 42.025391,11 c 0,0.273183 -0.03282,0.56161 -0.08594,0.982422 -0.04125,0.326781 -0.106495,0.717048 -0.173828,1.099609 L 41.356432,15 c 0.06529,0.327623 0.526829,0.609479 0.25685,0.792969 0.05014,0.06591 0.09495,0.135019 0.136718,0.207031 h 0.253907 c 1.104112,0 2.210681,-0.913486 1.99414,-2 L 43,4 C 42.783459,2.913486 42.111925,2 41.007813,2 Z"
         sodipodi:nodetypes="ccsccssccccsccsc" />
      <rect
         style="fill:#363636;stroke:none;stroke-width:3.99804;stroke-linecap:round;fill-opacity:1"
         id="rect1006"
         width="1.9980392"
         height="2"
         x="42"
         y="14" />
      <path
         id="path1010"
         style="fill:#363636;stroke:none;stroke-width:4.77252;stroke-linecap:round;fill-opacity:1"
         d="m 35,2 v 2 h -5.010745 c -0.552056,0 -0.888799,0.456743 -0.997069,1 l -0.995118,10 c -0.10827,0.543258 0.443062,1 0.995118,1 h -0.995118 c -1.104112,0 -2.210677,-0.913486 -1.994136,-2 L 27,4 c 0.21654,-1.086514 0.888074,-2 1.992186,-2 z"
         sodipodi:nodetypes="ccscccsccsc" />
      <path
         id="path1012"
         d="m 34.9244,6 a 3.75,3 0 0 0 -3.6777,3 3.75,3 0 0 0 3.75,3 3.75,3 0 0 0 3.75,-3 h -1.25 a 2.5,2 0 0 1 -2.5,2 2.5,2 0 0 1 -2.5,-2 2.5,2 0 0 1 2.4844,-2 2.5,2 0 0 1 0.0156,0 V 6 a 3.75,3 0 0 0 -0.0723,0 z"
         style="color:#363636;fill:#363636;fill-opacity:1" />
      <path
         id="path1014"
         opacity="0.35"
         fill="currentColor"
         class="ColorScheme-Text"
         d="M 34.9844,7 A 2.5,2 0 0 0 32.5,9 2.5,2 0 0 0 35,11 2.5,2 0 0 0 37.5,9 h -2 C 35.223,9 35,8.777 35,8.5 V 7 a 2.5,2 0 0 0 -0.0156,0 z"
         style="fill:#363636;fill-opacity:1" />
      <ellipse
         id="ellipse1016"
         ry="1"
         rx="1.25"
         cy="8.9999857"
         cx="35.004391"
         style="color:#363636;fill:#363636;fill-opacity:1" />
      <rect
         style="fill:#363636;stroke:none;stroke-width:3.99804;stroke-linecap:round;fill-opacity:1"
         id="rect1018"
         width="1.9980392"
         height="2"
         x="26.001961"
         y="14" />
      <path
         id="path1020"
         style="fill:#363636;fill-opacity:1;stroke-width:2;stroke-linecap:round;stroke-linejoin:round"
         d="m 28,14 c -1.108,0 -2,0.892 -2,2 v 2 c 0,1.108 0.892,2 2,2 h 14 c 1.108,0 2,-0.892 2,-2 v -2 c 0,-1.108 -0.892,-2 -2,-2 h -0.441406 c -0.06607,0.276292 -0.139699,0.544657 -0.228516,0.791016 -0.06457,0.179115 -0.139084,0.350344 -0.248047,0.529296 C 41.633472,15.675667 42,16.292464 42,17 c 0,0.136591 -0.01407,0.271005 -0.04102,0.400391 -2.51e-4,0.0012 2.54e-4,0.0027 0,0.0039 -0.159328,0.782578 -0.772109,1.395359 -1.554687,1.554687 C 40.273761,18.986429 40.137893,19 40,19 c -0.0026,0 -0.0052,1.1e-5 -0.0078,0 -0.0082,0 -0.01529,-0.0038 -0.02344,-0.0039 -0.150426,-0.0024 -0.296322,-0.0237 -0.4375,-0.05859 -0.06358,-0.01524 -0.122625,-0.0374 -0.183594,-0.05859 -0.08365,-0.02965 -0.163851,-0.06337 -0.242187,-0.103515 -0.0627,-0.03176 -0.12495,-0.06161 -0.183594,-0.09961 -0.06829,-0.04445 -0.12906,-0.09822 -0.191406,-0.15039 -0.0969,-0.08112 -0.185456,-0.167759 -0.265625,-0.265625 -0.0516,-0.06252 -0.102597,-0.124975 -0.146485,-0.19336 -0.01504,-0.02363 -0.0367,-0.04213 -0.05078,-0.06641 H 29 c -0.554,0 -1,-0.446 -1,-1 0,-0.554 0.446,-1 1,-1 h 9.267578 c 0.159865,-0.275632 0.388009,-0.503212 0.654297,-0.675781 C 38.811217,15.143518 38.735056,14.971694 38.669922,14.791016 38.581105,14.544656 38.507473,14.276292 38.441406,14 Z"
         sodipodi:nodetypes="sssssssscscssccsccccccccccsssccscs" />
      <path
         id="path1024"
         fill="#f47750"
         d="m 40,10 c -0.55228,0 -1,0.44772 -1,1 0,0.55228 0.44772,4 1,4 0.55228,0 1,-3.4477 1,-4 0,-0.5523 -0.44772,-1 -1,-1 z m 0,6 c -0.55228,0 -1,0.44772 -1,1 0,0.55228 0.44772,1 1,1 0.55228,0 1,-0.44772 1,-1 0,-0.55228 -0.44772,-1 -1,-1 z"
         style="color:#363636" />
    </g>
  </g>
  <g
     id="disk-quota-low"
     transform="translate(49)">
    <path
       id="path3035"
       d="M 0,0 V 22 H 22 V 0 Z"
       inkscape:connector-curvature="0"
       style="fill:none" />
    <g
       id="g3055">
      <path
         id="path3037"
         style="fill:#363636;stroke:none;stroke-width:4.77252;stroke-linecap:round;fill-opacity:1"
         d="m 11,2 v 2 h 5.011719 c 0.552056,0 0.887824,0.456743 0.996094,1 l 0.996094,10 c 0.06529,0.327623 -0.120646,0.609479 -0.390625,0.792969 0.05014,0.06591 0.09495,0.135019 0.136718,0.207031 h 0.253907 c 1.104112,0 2.210681,-0.913486 1.99414,-2 L 19,4 C 18.783459,2.913486 18.111925,2 17.007813,2 Z"
         sodipodi:nodetypes="ccsccccsccsc" />
      <rect
         style="fill:#363636;stroke:none;stroke-width:3.99804;stroke-linecap:round;fill-opacity:1"
         id="rect3039"
         width="1.9980392"
         height="2"
         x="18.003906"
         y="14" />
      <rect
         style="fill:#363636;stroke:none;stroke-width:3.99804;stroke-linecap:round;fill-opacity:1"
         id="rect3041"
         width="1.9980392"
         height="2"
         x="15.001961"
         y="16"
         ry="0.99901962" />
      <path
         id="path3043"
         style="fill:#363636;stroke:none;stroke-width:4.77252;stroke-linecap:round;fill-opacity:1"
         d="M 11,2 V 4 H 5.989255 C 5.437199,4 5.100456,4.456743 4.992186,5 L 3.997068,15 c -0.10827,0.543258 0.443062,1 0.995118,1 H 3.997068 C 2.892956,16 1.786391,15.086514 2.002932,14 L 3,4 C 3.21654,2.913486 3.888074,2 4.992186,2 Z"
         sodipodi:nodetypes="ccscccsccsc" />
      <path
         id="path3045"
         d="m 10.9244,6 a 3.75,3 0 0 0 -3.6777,3 3.75,3 0 0 0 3.75,3 3.75,3 0 0 0 3.75,-3 h -1.25 a 2.5,2 0 0 1 -2.5,2 2.5,2 0 0 1 -2.5,-2 2.5,2 0 0 1 2.4844,-2 2.5,2 0 0 1 0.0156,0 V 6 a 3.75,3 0 0 0 -0.0723,0 z"
         style="color:#363636;fill:#fdbc4b;fill-opacity:1" />
      <path
         id="path3047"
         opacity="0.35"
         fill="currentColor"
         class="ColorScheme-Text"
         d="M 10.9844,7 A 2.5,2 0 0 0 8.5,9 2.5,2 0 0 0 11,11 2.5,2 0 0 0 13.5,9 h -2 C 11.223,9 11,8.777 11,8.5 V 7 a 2.5,2 0 0 0 -0.0156,0 z"
         style="fill:#fdbc4b;fill-opacity:1" />
      <ellipse
         id="ellipse3049"
         ry="1"
         rx="1.25"
         cy="8.9999857"
         cx="11.004391"
         style="color:#363636;fill:#fdbc4b;fill-opacity:1" />
      <rect
         style="fill:#363636;stroke:none;stroke-width:3.99804;stroke-linecap:round;fill-opacity:1"
         id="rect3051"
         width="1.9980392"
         height="2"
         x="2"
         y="14" />
      <path
         id="path3053"
         style="opacity:1;fill:#363636;fill-opacity:1;stroke-width:2;stroke-linecap:round;stroke-linejoin:round"
         d="m 4,14 c -1.108,0 -2,0.892 -2,2 v 2 c 0,1.108 0.892,2 2,2 h 14 c 1.108,0 2,-0.892 2,-2 v -2 c 0,-1.108 -0.892,-2 -2,-2 z m 11.992188,1 H 16 c 1.108,0 2,0.892 2,2 0,1.108 -0.892,2 -2,2 h -0.0078 c -0.74107,0 -1.379049,-0.404201 -1.72461,-1 H 5 C 4.446,18 4,17.554 4,17 4,16.446 4.446,16 5,16 h 9.267578 c 0.345561,-0.595799 0.98354,-1 1.72461,-1 z"
         sodipodi:nodetypes="sssssssssssssscssscs" />
    </g>
  </g>
  <g
     id="disk-quota-high"
     transform="translate(74.002932)">
    <path
       id="path3059"
       d="M 0,0 V 22 H 22 V 0 Z"
       inkscape:connector-curvature="0"
       style="fill:none" />
    <g
       id="g3079">
      <path
         id="path3061"
         style="fill:#363636;stroke:none;stroke-width:4.77252;stroke-linecap:round;fill-opacity:1"
         d="m 11,2 v 2 h 5.011719 c 0.552056,0 0.887824,0.456743 0.996094,1 l 0.996094,10 c 0.06529,0.327623 -0.120646,0.609479 -0.390625,0.792969 0.05014,0.06591 0.09495,0.135019 0.136718,0.207031 h 0.253907 c 1.104112,0 2.210681,-0.913486 1.99414,-2 L 19,4 C 18.783459,2.913486 18.111925,2 17.007813,2 Z"
         sodipodi:nodetypes="ccsccccsccsc" />
      <rect
         style="fill:#363636;stroke:none;stroke-width:3.99804;stroke-linecap:round;fill-opacity:1"
         id="rect3063"
         width="1.9980392"
         height="2"
         x="18.003906"
         y="14" />
      <rect
         style="fill:#363636;stroke:none;stroke-width:3.99804;stroke-linecap:round;fill-opacity:1"
         id="rect3065"
         width="1.9980392"
         height="2"
         x="15.001961"
         y="16"
         ry="0.99901962" />
      <path
         id="path3067"
         style="fill:#363636;stroke:none;stroke-width:4.77252;stroke-linecap:round;fill-opacity:1"
         d="M 11,2 V 4 H 5.989255 C 5.437199,4 5.100456,4.456743 4.992186,5 L 3.997068,15 c -0.10827,0.543258 0.443062,1 0.995118,1 H 3.997068 C 2.892956,16 1.786391,15.086514 2.002932,14 L 3,4 C 3.21654,2.913486 3.888074,2 4.992186,2 Z"
         sodipodi:nodetypes="ccscccsccsc" />
      <path
         id="path3069"
         d="m 10.9244,6 a 3.75,3 0 0 0 -3.6777,3 3.75,3 0 0 0 3.75,3 3.75,3 0 0 0 3.75,-3 h -1.25 a 2.5,2 0 0 1 -2.5,2 2.5,2 0 0 1 -2.5,-2 2.5,2 0 0 1 2.4844,-2 2.5,2 0 0 1 0.0156,0 V 6 a 3.75,3 0 0 0 -0.0723,0 z"
         style="color:#363636;fill:#e74c3c;fill-opacity:1" />
      <path
         id="path3071"
         opacity="0.35"
         fill="currentColor"
         class="ColorScheme-Text"
         d="M 10.9844,7 A 2.5,2 0 0 0 8.5,9 2.5,2 0 0 0 11,11 2.5,2 0 0 0 13.5,9 h -2 C 11.223,9 11,8.777 11,8.5 V 7 a 2.5,2 0 0 0 -0.0156,0 z"
         style="fill:#e74c3c;fill-opacity:1" />
      <ellipse
         id="ellipse3073"
         ry="1"
         rx="1.25"
         cy="8.9999857"
         cx="11.004391"
         style="color:#363636;fill:#e74c3c;fill-opacity:1" />
      <rect
         style="fill:#363636;stroke:none;stroke-width:3.99804;stroke-linecap:round;fill-opacity:1"
         id="rect3075"
         width="1.9980392"
         height="2"
         x="2"
         y="14" />
      <path
         id="path3077"
         style="opacity:1;fill:#363636;fill-opacity:1;stroke-width:2;stroke-linecap:round;stroke-linejoin:round"
         d="m 4,14 c -1.108,0 -2,0.892 -2,2 v 2 c 0,1.108 0.892,2 2,2 h 14 c 1.108,0 2,-0.892 2,-2 v -2 c 0,-1.108 -0.892,-2 -2,-2 z m 11.992188,1 H 16 c 1.108,0 2,0.892 2,2 0,1.108 -0.892,2 -2,2 h -0.0078 c -0.74107,0 -1.379049,-0.404201 -1.72461,-1 H 5 C 4.446,18 4,17.554 4,17 4,16.446 4.446,16 5,16 h 9.267578 c 0.345561,-0.595799 0.98354,-1 1.72461,-1 z"
         sodipodi:nodetypes="sssssssssssssscssscs" />
    </g>
  </g>
  <g
     id="disk-quota-critical"
     transform="translate(75)">
    <rect
       id="rect3083"
       stroke-width="1.76"
       opacity="0"
       height="22"
       width="22"
       y="0"
       x="24.003988"
       style="color:#363636;fill:#363636" />
    <g
       id="g3103">
      <path
         id="path3085"
         style="fill:#363636;stroke:none;stroke-width:4.77252;stroke-linecap:round;fill-opacity:1"
         d="m 35,2 v 2 h 5.011719 c 0.552056,0 0.887824,0.456743 0.996094,1 L 41.31836,9.4921875 C 41.74643,9.8608776 42.025391,10.399601 42.025391,11 c 0,0.273183 -0.03282,0.56161 -0.08594,0.982422 -0.04125,0.326781 -0.106495,0.717048 -0.173828,1.099609 L 41.356432,15 c 0.06529,0.327623 0.526829,0.609479 0.25685,0.792969 0.05014,0.06591 0.09495,0.135019 0.136718,0.207031 h 0.253907 c 1.104112,0 2.210681,-0.913486 1.99414,-2 L 43,4 C 42.783459,2.913486 42.111925,2 41.007813,2 Z"
         sodipodi:nodetypes="ccsccssccccsccsc" />
      <rect
         style="fill:#363636;stroke:none;stroke-width:3.99804;stroke-linecap:round;fill-opacity:1"
         id="rect3087"
         width="1.9980392"
         height="2"
         x="42"
         y="14" />
      <path
         id="path3089"
         style="fill:#363636;stroke:none;stroke-width:4.77252;stroke-linecap:round;fill-opacity:1"
         d="m 35,2 v 2 h -5.010745 c -0.552056,0 -0.888799,0.456743 -0.997069,1 l -0.995118,10 c -0.10827,0.543258 0.443062,1 0.995118,1 h -0.995118 c -1.104112,0 -2.210677,-0.913486 -1.994136,-2 L 27,4 c 0.21654,-1.086514 0.888074,-2 1.992186,-2 z"
         sodipodi:nodetypes="ccscccsccsc" />
      <path
         id="path3091"
         d="m 34.9244,6 a 3.75,3 0 0 0 -3.6777,3 3.75,3 0 0 0 3.75,3 3.75,3 0 0 0 3.75,-3 h -1.25 a 2.5,2 0 0 1 -2.5,2 2.5,2 0 0 1 -2.5,-2 2.5,2 0 0 1 2.4844,-2 2.5,2 0 0 1 0.0156,0 V 6 a 3.75,3 0 0 0 -0.0723,0 z"
         style="color:#363636;fill:#e74c3c;fill-opacity:1" />
      <path
         id="path3093"
         opacity="0.35"
         fill="currentColor"
         class="ColorScheme-Text"
         d="M 34.9844,7 A 2.5,2 0 0 0 32.5,9 2.5,2 0 0 0 35,11 2.5,2 0 0 0 37.5,9 h -2 C 35.223,9 35,8.777 35,8.5 V 7 a 2.5,2 0 0 0 -0.0156,0 z"
         style="fill:#e74c3c;fill-opacity:1" />
      <ellipse
         id="ellipse3095"
         ry="1"
         rx="1.25"
         cy="8.9999857"
         cx="35.004391"
         style="color:#363636;fill:#e74c3c;fill-opacity:1" />
      <rect
         style="fill:#363636;stroke:none;stroke-width:3.99804;stroke-linecap:round;fill-opacity:1"
         id="rect3097"
         width="1.9980392"
         height="2"
         x="26.001961"
         y="14" />
      <path
         id="path3099"
         style="fill:#363636;fill-opacity:1;stroke-width:2;stroke-linecap:round;stroke-linejoin:round"
         d="m 28,14 c -1.108,0 -2,0.892 -2,2 v 2 c 0,1.108 0.892,2 2,2 h 14 c 1.108,0 2,-0.892 2,-2 v -2 c 0,-1.108 -0.892,-2 -2,-2 h -0.441406 c -0.06607,0.276292 -0.139699,0.544657 -0.228516,0.791016 -0.06457,0.179115 -0.139084,0.350344 -0.248047,0.529296 C 41.633472,15.675667 42,16.292464 42,17 c 0,0.136591 -0.01407,0.271005 -0.04102,0.400391 -2.51e-4,0.0012 2.54e-4,0.0027 0,0.0039 -0.159328,0.782578 -0.772109,1.395359 -1.554687,1.554687 C 40.273761,18.986429 40.137893,19 40,19 c -0.0026,0 -0.0052,1.1e-5 -0.0078,0 -0.0082,0 -0.01529,-0.0038 -0.02344,-0.0039 -0.150426,-0.0024 -0.296322,-0.0237 -0.4375,-0.05859 -0.06358,-0.01524 -0.122625,-0.0374 -0.183594,-0.05859 -0.08365,-0.02965 -0.163851,-0.06337 -0.242187,-0.103515 -0.0627,-0.03176 -0.12495,-0.06161 -0.183594,-0.09961 -0.06829,-0.04445 -0.12906,-0.09822 -0.191406,-0.15039 -0.0969,-0.08112 -0.185456,-0.167759 -0.265625,-0.265625 -0.0516,-0.06252 -0.102597,-0.124975 -0.146485,-0.19336 -0.01504,-0.02363 -0.0367,-0.04213 -0.05078,-0.06641 H 29 c -0.554,0 -1,-0.446 -1,-1 0,-0.554 0.446,-1 1,-1 h 9.267578 c 0.159865,-0.275632 0.388009,-0.503212 0.654297,-0.675781 C 38.811217,15.143518 38.735056,14.971694 38.669922,14.791016 38.581105,14.544656 38.507473,14.276292 38.441406,14 Z"
         sodipodi:nodetypes="sssssssscscssccsccccccccccsssccscs" />
      <path
         id="path3101"
         fill="#f47750"
         d="m 40,10 c -0.55228,0 -1,0.44772 -1,1 0,0.55228 0.44772,4 1,4 0.55228,0 1,-3.4477 1,-4 0,-0.5523 -0.44772,-1 -1,-1 z m 0,6 c -0.55228,0 -1,0.44772 -1,1 0,0.55228 0.44772,1 1,1 0.55228,0 1,-0.44772 1,-1 0,-0.55228 -0.44772,-1 -1,-1 z"
         style="color:#363636;fill:#e74c3c;fill-opacity:1" />
    </g>
  </g>
</svg>
