<?xml version="1.0" encoding="UTF-8" standalone="no"?>
<svg
   inkscape:version="1.1.1 (3bf5ae0d25, 2021-09-20, custom)"
   sodipodi:docname="kaffeine.svg"
   id="svg44"
   version="1.1"
   height="32"
   width="32"
   style="enable-background:new"
   xmlns:inkscape="http://www.inkscape.org/namespaces/inkscape"
   xmlns:sodipodi="http://sodipodi.sourceforge.net/DTD/sodipodi-0.dtd"
   xmlns="http://www.w3.org/2000/svg"
   xmlns:svg="http://www.w3.org/2000/svg"
   xmlns:rdf="http://www.w3.org/1999/02/22-rdf-syntax-ns#"
   xmlns:cc="http://creativecommons.org/ns#"
   xmlns:dc="http://purl.org/dc/elements/1.1/">
  <metadata
     id="metadata48">
    <rdf:RDF>
      <cc:Work
         rdf:about="">
        <dc:format>image/svg+xml</dc:format>
        <dc:type
           rdf:resource="http://purl.org/dc/dcmitype/StillImage" />
      </cc:Work>
    </rdf:RDF>
  </metadata>
  <sodipodi:namedview
     showguides="false"
     inkscape:current-layer="svg44"
     inkscape:window-maximized="1"
     inkscape:window-y="40"
     inkscape:window-x="0"
     inkscape:cy="21.624999"
     inkscape:cx="25.937499"
     inkscape:zoom="8.0000004"
     showgrid="true"
     id="namedview46"
     inkscape:window-height="965"
     inkscape:window-width="1920"
     inkscape:pageshadow="2"
     inkscape:pageopacity="0"
     guidetolerance="10"
     gridtolerance="10"
     objecttolerance="10"
     borderopacity="1"
     bordercolor="#000000"
     pagecolor="#c8c8c8"
     inkscape:document-rotation="0"
     inkscape:pagecheckerboard="0"
     inkscape:snap-bbox="true"
     inkscape:bbox-nodes="true"
     inkscape:snap-smooth-nodes="true">
    <inkscape:grid
       id="grid845"
       type="xygrid"
       originx="0"
       originy="0" />
  </sodipodi:namedview>
  <defs
     id="defs4">
    <linearGradient
       id="linearGradient5606"
       inkscape:swatch="solid">
      <stop
         style="stop-color:#000000"
         offset="0"
         id="stop5608" />
    </linearGradient>
  </defs>
  <g
     id="g128"
     transform="matrix(0,0.23269337,-0.3257329,0,32.286645,4.6684123)">
    <g
       id="g126">
      <g
         id="g124">
        <g
           id="g122">
          <g
             id="g120">
            <g
               id="g118">
              <g
                 id="g116">
                <g
                   id="g114" />
              </g>
            </g>
          </g>
        </g>
      </g>
    </g>
  </g>
  <g
     id="g146"
     transform="matrix(0,0.23269337,-0.3257329,0,32.286645,4.6684123)">
    <g
       id="g144">
      <g
         id="g142">
        <g
           id="g140">
          <g
             id="g138">
            <g
               id="g136">
              <g
                 id="g134">
                <g
                   id="g132" />
              </g>
            </g>
          </g>
        </g>
      </g>
    </g>
  </g>
  <g
     id="kaffeine">
    <rect
       id="rect11"
       style="opacity:0.00100002"
       y="0"
       x="0"
       height="32"
       width="32" />
    <g
       id="g2689"
       transform="translate(26,32)">
      <g
         id="g1643">
        <path
           id="rect1012"
           style="fill:#363636;fill-rule:evenodd;stroke:none;stroke-width:0.482;stroke-linejoin:round;paint-order:stroke fill markers;fill-opacity:1"
           d="m -22,-26 c -1.108,0 -2,0.892 -2,2 v 16 c 0,1.108 0.892,2 2,2 H 2 c 1.108,0 2,-0.892 2,-2 v -16 c 0,-1.108 -0.892,-2 -2,-2 z m 1,2 H 1 c 0.554,0 1,0.446 1,1 v 14 c 0,0.554 -0.446,1 -1,1 h -22 c -0.554,0 -1,-0.446 -1,-1 v -14 c 0,-0.554 0.446,-1 1,-1 z"
           sodipodi:nodetypes="ssssssssssssssssss" />
        <rect
           style="fill:#363636;fill-rule:evenodd;stroke:none;stroke-width:0.482;stroke-linejoin:round;paint-order:stroke fill markers;fill-opacity:1"
           id="rect1341"
           width="24"
           height="2"
           x="-22"
           y="-20" />
        <rect
           style="fill:#363636;fill-rule:evenodd;stroke:none;stroke-width:0.482;stroke-linejoin:round;paint-order:stroke fill markers;fill-opacity:1"
           id="rect1445"
           width="2"
           height="6"
           x="-15"
           y="-24" />
        <rect
           style="fill:#363636;fill-rule:evenodd;stroke:none;stroke-width:0.482;stroke-linejoin:round;paint-order:stroke fill markers;fill-opacity:1"
           id="rect1527"
           width="2"
           height="6"
           x="-7"
           y="-24" />
      </g>
      <path
         id="path1637"
         style="fill:#363636;fill-opacity:1;fill-rule:evenodd;stroke-width:0.2869;stroke-linecap:round;stroke-linejoin:round;paint-order:stroke fill markers"
         d="M -11.424689,-15.999428 C -11.718478,-16.012358 -12,-15.804668 -12,-15.502443 v 5.004799 c 0,0.403055 0.500294,0.6381323 0.862965,0.405742 l 3.9052745,-2.502399 c 0.309014,-0.19801 0.309014,-0.613476 0,-0.811484 l -3.9052745,-2.5024 c -0.09067,-0.0581 -0.189725,-0.08693 -0.287654,-0.09125 z"
         sodipodi:nodetypes="sssccccs" />
    </g>
  </g>
  <g
     id="22-22-kaffeine">
    <path
       id="path6"
       d="m 32,10 h 22 c 0,0 0,0 0,0 v 22 c 0,0 0,0 0,0 H 32 c 0,0 0,0 0,0 V 10 c 0,0 0,0 0,0 z"
       style="opacity:0" />
    <g
       id="g2958"
       transform="translate(5,35)">
      <g
         id="g2519">
        <path
           id="rect1747"
           style="fill:#363636;fill-rule:evenodd;stroke:none;stroke-width:0.482;stroke-linejoin:round;paint-order:stroke fill markers;fill-opacity:1"
           d="m 30,-22 c -1.108,0 -2,0.892 -2,2 v 12 c 0,1.108 0.892,2 2,2 h 16 c 1.108,0 2,-0.892 2,-2 v -12 c 0,-1.108 -0.892,-2 -2,-2 z m 1,2 h 14 c 0.554,0 1,0.446 1,1 v 10 c 0,0.554 -0.446,1 -1,1 H 31 c -0.554,0 -1,-0.446 -1,-1 v -10 c 0,-0.554 0.446,-1 1,-1 z"
           sodipodi:nodetypes="ssssssssssssssssss" />
        <rect
           style="fill:#363636;fill-rule:evenodd;stroke:none;stroke-width:0.482;stroke-linejoin:round;paint-order:stroke fill markers;fill-opacity:1"
           id="rect1972"
           width="18"
           height="2"
           x="29"
           y="-17" />
        <rect
           style="fill:#363636;fill-rule:evenodd;stroke:none;stroke-width:0.482;stroke-linejoin:round;paint-order:stroke fill markers;fill-opacity:1"
           id="rect2429"
           width="2"
           height="6"
           x="34"
           y="-21" />
        <rect
           style="fill:#363636;fill-rule:evenodd;stroke:none;stroke-width:0.482;stroke-linejoin:round;paint-order:stroke fill markers;fill-opacity:1"
           id="rect2511"
           width="2"
           height="6"
           x="40"
           y="-21" />
      </g>
      <path
         id="path2513"
         style="fill:#363636;fill-opacity:1;fill-rule:evenodd;stroke-width:0.234266;stroke-linecap:round;stroke-linejoin:round;paint-order:stroke fill markers"
         d="M 36.460249,-13.999523 C 36.225218,-14.010303 36,-13.837205 36,-13.585322 v 4.1711427 c 0,0.335918 0.400235,0.531838 0.690373,0.338157 l 3.124219,-2.0855707 c 0.247211,-0.165027 0.247211,-0.511288 0,-0.676314 l -3.124219,-2.085572 c -0.07253,-0.04842 -0.151781,-0.07245 -0.230124,-0.07605 z"
         sodipodi:nodetypes="sssccccs" />
    </g>
  </g>
</svg>
