<?xml version="1.0" encoding="UTF-8" standalone="no"?>
<svg
   xmlns:dc="http://purl.org/dc/elements/1.1/"
   xmlns:cc="http://creativecommons.org/ns#"
   xmlns:rdf="http://www.w3.org/1999/02/22-rdf-syntax-ns#"
   xmlns:svg="http://www.w3.org/2000/svg"
   xmlns="http://www.w3.org/2000/svg"
   xmlns:sodipodi="http://sodipodi.sourceforge.net/DTD/sodipodi-0.dtd"
   xmlns:inkscape="http://www.inkscape.org/namespaces/inkscape"
   width="32"
   height="32"
   version="1"
   id="svg12"
   sodipodi:docname="knotes.svg"
   inkscape:version="1.0.2 (e86c870879, 2021-01-15)">
  <metadata
     id="metadata18">
    <rdf:RDF>
      <cc:Work
         rdf:about="">
        <dc:format>image/svg+xml</dc:format>
        <dc:type
           rdf:resource="http://purl.org/dc/dcmitype/StillImage" />
        <dc:title />
      </cc:Work>
    </rdf:RDF>
  </metadata>
  <defs
     id="defs16" />
  <sodipodi:namedview
     pagecolor="#c8c8c8"
     bordercolor="#666666"
     borderopacity="1"
     objecttolerance="10"
     gridtolerance="10"
     guidetolerance="10"
     inkscape:pageopacity="0"
     inkscape:pageshadow="2"
     inkscape:window-width="1920"
     inkscape:window-height="992"
     id="namedview14"
     showgrid="true"
     inkscape:zoom="9.8125"
     inkscape:cx="28.061623"
     inkscape:cy="8.503148"
     inkscape:window-x="0"
     inkscape:window-y="0"
     inkscape:window-maximized="1"
     inkscape:current-layer="svg12"
     inkscape:document-rotation="0">
    <inkscape:grid
       type="xygrid"
       id="grid857"
       originx="0"
       originy="0" />
  </sodipodi:namedview>
  <g
     id="22-22-knotes"
     transform="translate(-14,5.000001)">
    <rect
       style="fill:none;fill-opacity:1;stroke:none;stroke-width:0.1;stroke-linecap:square;stroke-linejoin:miter;stroke-miterlimit:4;stroke-dasharray:none;stroke-dashoffset:0;stroke-opacity:1"
       id="rect4148-3"
       width="22"
       height="22"
       x="49"
       y="4.999999" />
    <g
       id="g871"
       transform="translate(-22)">
      <path
         id="rect852"
         style="opacity:1;fill:#333333;stroke:none;stroke-width:2.05798;fill-opacity:1"
         d="m 75,7 c -1.108,0 -2,0.892 -2,2 v 14 c 0,1.108 0.892,2 2,2 h 14 c 1.108,0 2,-0.892 2,-2 V 9 C 91,7.892 90.108,7 89,7 Z m 1,2 h 12 c 0.554,0 1,0.446 1,1 v 12 c 0,0.554 -0.446,1 -1,1 H 76 c -0.554,0 -1,-0.446 -1,-1 V 10 c 0,-0.554 0.446,-1 1,-1 z" />
      <path
         id="rect863"
         style="opacity:1;fill:#333333;stroke:none;stroke-width:2;fill-opacity:1"
         d="m 83,16 c -0.553999,0 -1,0.446001 -1,1 v 6 c 0,0.499265 0.368643,0.892302 0.845703,0.96875 l 6.912109,-7.601562 C 89.574662,16.147643 89.309566,16 89,16 Z" />
    </g>
  </g>
  <g
     id="knotes">
    <rect
       y="-1e-06"
       x="-2.8953547e-08"
       height="32"
       width="32.000004"
       id="rect4230-6"
       style="fill:none;fill-opacity:1;stroke:none" />
    <g
       id="g913"
       transform="translate(31)">
      <path
         id="rect856"
         style="opacity:1;fill:#333333;stroke:none;stroke-width:3.2013;fill-opacity:1"
         d="m -27,2 c -1.108,0 -2,0.892 -2,2 v 24 c 0,1.108 0.892,2 2,2 h 24 c 1.108,0 2,-0.892 2,-2 V 4 C -1,2.892 -1.892,2 -3,2 Z m 1,2 h 22 c 0.554,0 1,0.446 1,1 v 22 c 0,0.554 -0.446,1 -1,1 h -22 c -0.554,0 -1,-0.446 -1,-1 V 5 c 0,-0.554 0.446,-1 1,-1 z" />
      <path
         id="rect905"
         style="opacity:1;fill:#333333;fill-opacity:1;stroke:none;stroke-width:2"
         d="m -13,17 c -0.553999,0 -1,0.446001 -1,1 v 10 c 0,0.276999 0.112219,0.526281 0.292969,0.707031 L -2.2929688,17.292969 C -2.4737186,17.112219 -2.7230003,17 -3,17 Z" />
    </g>
  </g>
</svg>
