<?xml version="1.0" encoding="UTF-8" standalone="no"?>
<svg
   viewBox="0 0 22 22"
   version="1.1"
   id="svg"
   sodipodi:docname="slc.svg"
   inkscape:version="1.1.1 (3bf5ae0d25, 2021-09-20, custom)"
   xmlns:inkscape="http://www.inkscape.org/namespaces/inkscape"
   xmlns:sodipodi="http://sodipodi.sourceforge.net/DTD/sodipodi-0.dtd"
   xmlns="http://www.w3.org/2000/svg"
   xmlns:svg="http://www.w3.org/2000/svg"
   xmlns:rdf="http://www.w3.org/1999/02/22-rdf-syntax-ns#"
   xmlns:cc="http://creativecommons.org/ns#"
   xmlns:dc="http://purl.org/dc/elements/1.1/">
  <sodipodi:namedview
     id="namedview15"
     pagecolor="#c8c8c8"
     bordercolor="#999999"
     borderopacity="1"
     inkscape:pageshadow="0"
     inkscape:pageopacity="0"
     inkscape:pagecheckerboard="0"
     showgrid="true"
     inkscape:snap-bbox="true"
     inkscape:bbox-nodes="true"
     inkscape:snap-bbox-edge-midpoints="true"
     inkscape:snap-nodes="false"
     inkscape:zoom="12.502933"
     inkscape:cx="16.116218"
     inkscape:cy="-3.9190803"
     inkscape:window-width="1920"
     inkscape:window-height="965"
     inkscape:window-x="0"
     inkscape:window-y="40"
     inkscape:window-maximized="1"
     inkscape:current-layer="svg">
    <inkscape:grid
       type="xygrid"
       id="grid832" />
  </sodipodi:namedview>
  <metadata
     id="metadata23">
    <rdf:RDF>
      <cc:Work
         rdf:about="">
        <dc:format>image/svg+xml</dc:format>
        <dc:type
           rdf:resource="http://purl.org/dc/dcmitype/StillImage" />
      </cc:Work>
    </rdf:RDF>
  </metadata>
  <defs
     id="defs3">
    <style
       type="text/css"
       id="current-color-scheme">.ColorScheme-Text {
        color:#363636;
      }</style>
  </defs>
  <g
     transform="translate(-1,-41)"
     id="slc-like">
    <rect
       id="rect5"
       fill-opacity="0"
       height="22"
       width="22"
       y="1"
       x="1" />
    <path
       id="path7"
       class="ColorScheme-Text"
       d="M 7 -37 C 4.2386 -37 2 -34.7614 2 -32 C 2 -27 9 -23 11 -21 C 13 -23 20 -27 20 -32 C 20 -34.7614 17.7614 -37 15 -37 C 13.3604 -37 11.9118 -36.21923 11 -35 C 10.08819 -36.2192 8.6396 -37 7 -37 z M 7 -35 C 10 -35 11 -33 11 -33 C 11 -33 12 -35 15 -35 C 16.6569 -35 18 -33.6569 18 -32 C 18 -28 13 -25 11 -23 C 9 -25 4 -28 4 -32 C 4 -33.6569 5.3431 -35 7 -35 z "
       transform="translate(1,41)"
       style="fill:#363636;fill-opacity:1" />
  </g>
  <g
     transform="translate(39,-1)"
     id="slc-share">
    <rect
       id="rect10"
       fill-opacity="0"
       height="22"
       width="22"
       y="1"
       x="1" />
    <path
       id="path12"
       class="ColorScheme-Text"
       d="M 57 3 C 55.3431 3 54 4.3431 54 6 C 54 6.087382 54.02393 6.16451 54.03125 6.25 L 47.28125 9.0625 C 46.73097 8.41522 45.9161 8 45 8 C 43.3431 8 42 9.3431 42 11 C 42 12.6569 43.3431 14 45 14 C 45.91614 14 46.73105 13.58478 47.28125 12.9375 L 54.03125 15.75 C 54.023929 15.835486 54 15.91262 54 16 C 54 17.6569 55.3431 19 57 19 C 58.6569 19 60 17.6569 60 16 C 60 14.3431 58.6569 13 57 13 C 56.08386 13 55.26895 13.41522 54.71875 14.0625 L 47.96875 11.25 C 47.976071 11.164514 48 11.08738 48 11 C 48 10.91262 47.976071 10.83549 47.96875 10.75 L 54.71875 7.9375 C 55.26903 8.58478 56.0839 9 57 9 C 58.6569 9 60 7.6569 60 6 C 60 4.3431 58.6569 3 57 3 z M 57 5 C 57.55228 5 58 5.44772 58 6 C 58 6.55228 57.55228 7 57 7 C 56.44772 7 56 6.55228 56 6 C 56 5.44772 56.44772 5 57 5 z M 45 10 C 45.55228 10 46 10.44772 46 11 C 46 11.55228 45.55228 12 45 12 C 44.44772 12 44 11.55228 44 11 C 44 10.44772 44.44772 10 45 10 z M 57 15 C 57.55228 15 58 15.44772 58 16 C 58 16.55228 57.55228 17 57 17 C 56.44772 17 56 16.55228 56 16 C 56 15.44772 56.44772 15 57 15 z "
       transform="translate(-39,1)"
       style="fill:#363636;fill-opacity:1" />
  </g>
  <g
     id="slc-connect">
    <rect
       id="rect15"
       fill-opacity="0"
       height="22"
       width="22"
       y="0"
       x="0" />
    <path
       id="path835"
       style="color:#000000;fill:#363636;stroke-width:0.805403;-inkscape-stroke:none;fill-opacity:1"
       d="M 12.382812 3.0039062 C 12.28255 3.00881 12.182978 3.0190919 12.083984 3.0351562 C 11.292036 3.1636705 10.557036 3.6477027 10.160156 4.4414062 L 8.1992188 8.3632812 C 8.1756111 8.4104989 8.1358243 8.4476128 8.0859375 8.4648438 L 4.7285156 9.6230469 C 3.7600116 9.9576448 3.4688209 11.226599 4.1933594 11.951172 L 6.4082031 14.167969 L 3 17.576172 L 3 19 L 4.4238281 19 L 7.8320312 15.591797 L 10.048828 17.806641 C 10.773414 18.531115 12.042355 18.239989 12.376953 17.271484 L 13.537109 13.914062 C 13.554309 13.864273 13.589549 13.824373 13.636719 13.800781 L 17.558594 11.839844 C 19.146015 11.046086 19.495226 8.9014376 18.240234 7.6464844 L 14.353516 3.7597656 C 13.804459 3.2107212 13.084648 2.9695802 12.382812 3.0039062 z M 12.541016 5.0019531 C 12.67904 5.0121226 12.81722 5.0711243 12.929688 5.1835938 L 16.816406 9.0703125 C 17.116311 9.3702172 17.037527 9.8494242 16.658203 10.039062 L 12.736328 12 C 12.218606 12.258909 11.82186 12.710549 11.632812 13.257812 L 10.789062 15.701172 L 6.2988281 11.210938 L 8.7421875 10.367188 C 9.2894569 10.178216 9.7410794 9.7814826 10 9.2636719 L 11.960938 5.3417969 C 12.055758 5.1521258 12.223646 5.0371268 12.404297 5.0078125 C 12.44946 5.000484 12.495008 4.9985633 12.541016 5.0019531 z " />
  </g>
</svg>
