<?xml version="1.0" encoding="UTF-8" standalone="no"?>
<svg
   id="svg29"
   viewBox="0 0 22 22"
   version="1.0"
   height="22"
   width="22"
   sodipodi:docname="zoom.svg"
   inkscape:version="1.1 (c4e8f9ed74, 2021-05-24)"
   xmlns:inkscape="http://www.inkscape.org/namespaces/inkscape"
   xmlns:sodipodi="http://sodipodi.sourceforge.net/DTD/sodipodi-0.dtd"
   xmlns="http://www.w3.org/2000/svg"
   xmlns:svg="http://www.w3.org/2000/svg"
   xmlns:rdf="http://www.w3.org/1999/02/22-rdf-syntax-ns#"
   xmlns:cc="http://creativecommons.org/ns#"
   xmlns:dc="http://purl.org/dc/elements/1.1/">
  <sodipodi:namedview
     id="namedview20"
     pagecolor="#ffffff"
     bordercolor="#999999"
     borderopacity="1"
     inkscape:pageshadow="0"
     inkscape:pageopacity="0"
     inkscape:pagecheckerboard="0"
     showgrid="true"
     inkscape:snap-bbox="true"
     inkscape:bbox-nodes="true"
     inkscape:zoom="13.46717"
     inkscape:cx="5.1606982"
     inkscape:cy="5.3463348"
     inkscape:window-width="1920"
     inkscape:window-height="998"
     inkscape:window-x="0"
     inkscape:window-y="0"
     inkscape:window-maximized="1"
     inkscape:current-layer="svg29">
    <inkscape:grid
       type="xygrid"
       id="grid837" />
  </sodipodi:namedview>
  <metadata
     id="metadata33">
    <rdf:RDF>
      <cc:Work
         rdf:about="">
        <dc:format>image/svg+xml</dc:format>
        <dc:type
           rdf:resource="http://purl.org/dc/dcmitype/StillImage" />
      </cc:Work>
    </rdf:RDF>
  </metadata>
  <defs
     id="defs3">
    <style
       type="text/css"
       id="current-color-scheme">.ColorScheme-Text { color:#363636; } </style>
  </defs>
  <g
     transform="translate(-252.52,-365.51)"
     id="zoom-fit-height">
    <path
       id="path5"
       fill="currentColor"
       d="m 253.52,366.51 v 1 h 20 v -1 z m 10,1 -3,3 h 2 v 3.1875 c -1.1583,0.41552 -2,1.5112 -2,2.8125 0,1.3013 0.84166,2.397 2,2.8125 v 3.1875 h -2 l 3,3 3,-3 h -2 v -3.1875 c 1.1584,-0.41551 2,-1.5112 2,-2.8125 0,-1.3013 -0.84165,-2.397 -2,-2.8125 V 370.51 h 2 z m 0,18 h -10 v 1 h 20 v -1 z m 0,-11 c 1.1046,0 2,0.89543 2,2 0,1.10457 -0.89543,2 -2,2 -1.1046,0 -2,-0.89543 -2,-2 0,-1.10457 0.89544,-2 2,-2 z"
       class="ColorScheme-Text" />
    <circle
       id="circle7"
       fill="currentColor"
       r="1"
       cy="11"
       cx="11.013"
       transform="translate(252.52,365.51)"
       class="ColorScheme-Text" />
    <rect
       id="rect9"
       fill-opacity="0"
       height="22"
       width="22"
       y="4e-06"
       x="0.012515"
       transform="translate(252.52,365.51)" />
  </g>
  <g
     transform="rotate(90,332.03,79.490001)"
     id="zoom-fit-width">
    <path
       id="path12"
       fill="currentColor"
       d="m 253.52,366.51 v 1 h 20 v -1 z m 10,1 -3,3 h 2 v 3.1875 c -1.1583,0.41552 -2,1.5112 -2,2.8125 0,1.3013 0.84166,2.397 2,2.8125 v 3.1875 h -2 l 3,3 3,-3 h -2 v -3.1875 c 1.1584,-0.41551 2,-1.5112 2,-2.8125 0,-1.3013 -0.84165,-2.397 -2,-2.8125 V 370.51 h 2 z m 0,18 h -10 v 1 h 20 v -1 z m 0,-11 c 1.1046,0 2,0.89543 2,2 0,1.10457 -0.89543,2 -2,2 -1.1046,0 -2,-0.89543 -2,-2 0,-1.10457 0.89544,-2 2,-2 z"
       class="ColorScheme-Text" />
    <circle
       id="circle14"
       fill="currentColor"
       r="1"
       cy="11"
       cx="11.013"
       transform="translate(252.52,365.51)"
       class="ColorScheme-Text" />
    <rect
       id="rect16"
       fill-opacity="0"
       height="22"
       width="22"
       y="4e-06"
       x="0.012515"
       transform="translate(252.52,365.51)" />
  </g>
  <g
     transform="translate(-232.52,-390.51)"
     id="16-16-zoom-fit-height">
    <path
       id="path19"
       fill="currentColor"
       d="m 256.52,369.51 v 1 h 14 v -1 z m 7,1 -2,2 h 1 c 0,0 0.007,1.1284 0,2.2812 -0.5969,0.34604 -1,0.97915 -1,1.7188 0,0.73965 0.4031,1.3727 1,1.7188 0.007,1.1862 0,2.3125 0,2.3125 h -1 l 1.9688,1.9688 h -6.9375 v 1 h 13.969 v -1 h -6.9688 l 1.9688,-1.9688 -1.0312,-0.0312 v -2.25 c 0.61694,-0.34059 1.0312,-0.99545 1.0312,-1.75 0,-0.75455 -0.41431,-1.4094 -1.0312,-1.75 v -2.2188 l 1.0312,-0.0312 -2,-2 z m -0.125,5.0312 h 0.25 c 0.4881,0.0662 0.875,0.46249 0.875,0.96875 0,0.55228 -0.44772,1 -1,1 -0.55228,0 -1,-0.44772 -1,-1 0,-0.50626 0.3869,-0.90253 0.875,-0.96875 z"
       class="ColorScheme-Text" />
    <rect
       id="rect21"
       fill-opacity="0"
       height="16"
       width="16"
       y="6.0000002e-06"
       x="0.012518"
       transform="translate(255.52,368.51)" />
  </g>
  <g
     transform="rotate(90,332.03,54.490001)"
     id="16-16-zoom-fit-width">
    <path
       id="path24"
       fill="currentColor"
       d="m 256.52,369.51 v 1 h 14 v -1 z m 7,1 -2,2 h 1 c 0,0 0.007,1.1284 0,2.2812 -0.5969,0.34604 -1,0.97915 -1,1.7188 0,0.73965 0.4031,1.3727 1,1.7188 0.007,1.1862 0,2.3125 0,2.3125 h -1 l 1.9688,1.9688 h -6.9375 v 1 h 13.969 v -1 h -6.9688 l 1.9688,-1.9688 -1.0312,-0.0312 v -2.25 c 0.61694,-0.34059 1.0312,-0.99545 1.0312,-1.75 0,-0.75455 -0.41431,-1.4094 -1.0312,-1.75 v -2.2188 l 1.0312,-0.0312 -2,-2 z m -0.125,5.0312 h 0.25 c 0.4881,0.0662 0.875,0.46249 0.875,0.96875 0,0.55228 -0.44772,1 -1,1 -0.55228,0 -1,-0.44772 -1,-1 0,-0.50626 0.3869,-0.90253 0.875,-0.96875 z"
       class="ColorScheme-Text" />
    <rect
       id="rect26"
       fill-opacity="0"
       height="16"
       width="16"
       y="6.0000002e-06"
       x="0.012518"
       transform="translate(255.52,368.51)" />
  </g>
</svg>
