<?xml version="1.0" encoding="UTF-8" standalone="no"?>
<svg
   width="124"
   height="52"
   version="1.1"
   viewBox="0 0 32.808 13.758"
   id="svg133"
   sodipodi:docname="configuration-icons.svg"
   inkscape:version="1.1.1 (3bf5ae0d25, 2021-09-20, custom)"
   xmlns:inkscape="http://www.inkscape.org/namespaces/inkscape"
   xmlns:sodipodi="http://sodipodi.sourceforge.net/DTD/sodipodi-0.dtd"
   xmlns="http://www.w3.org/2000/svg"
   xmlns:svg="http://www.w3.org/2000/svg"
   xmlns:rdf="http://www.w3.org/1999/02/22-rdf-syntax-ns#"
   xmlns:cc="http://creativecommons.org/ns#"
   xmlns:dc="http://purl.org/dc/elements/1.1/">
  <metadata
     id="metadata137">
    <rdf:RDF>
      <cc:Work
         rdf:about="">
        <dc:format>image/svg+xml</dc:format>
        <dc:type
           rdf:resource="http://purl.org/dc/dcmitype/StillImage" />
        <dc:title />
      </cc:Work>
    </rdf:RDF>
  </metadata>
  <sodipodi:namedview
     pagecolor="#329632"
     bordercolor="#666666"
     borderopacity="1"
     objecttolerance="10"
     gridtolerance="10"
     guidetolerance="10"
     inkscape:pageopacity="0"
     inkscape:pageshadow="2"
     inkscape:window-width="1920"
     inkscape:window-height="965"
     id="namedview135"
     showgrid="true"
     inkscape:zoom="26.25419"
     inkscape:cx="22.758272"
     inkscape:cy="6.4370677"
     inkscape:window-x="0"
     inkscape:window-y="40"
     inkscape:window-maximized="1"
     inkscape:current-layer="svg133"
     inkscape:document-rotation="0"
     inkscape:pagecheckerboard="0"
     inkscape:snap-bbox="true"
     inkscape:bbox-nodes="true"
     inkscape:snap-bbox-edge-midpoints="true"
     inkscape:snap-nodes="false">
    <inkscape:grid
       type="xygrid"
       id="grid1027" />
  </sodipodi:namedview>
  <defs
     id="defs3">
    <style
       id="current-color-scheme"
       type="text/css">.ColorScheme-Text {
        color:#31363b;
        stop-color:#31363b;
      }
      .ColorScheme-Background {
        color:#eff0f1;
        stop-color:#eff0f1;
      }
      .ColorScheme-Highlight {
        color:#3daee9;
        stop-color:#3daee9;
      }
      .ColorScheme-ViewText {
        color:#31363b;
        stop-color:#31363b;
      }
      .ColorScheme-ViewBackground {
        color:#fcfcfc;
        stop-color:#fcfcfc;
      }
      .ColorScheme-ViewHover {
        color:#93cee9;
        stop-color:#93cee9;
      }
      .ColorScheme-ViewFocus{
        color:#3daee9;
        stop-color:#3daee9;
      }
      .ColorScheme-ButtonText {
        color:#31363b;
        stop-color:#31363b;
      }
      .ColorScheme-ButtonBackground {
        color:#eff0f1;
        stop-color:#eff0f1;
      }
      .ColorScheme-ButtonHover {
        color:#93cee9;
        stop-color:#93cee9;
      }
      .ColorScheme-ButtonFocus{
        color:#3daee9;
        stop-color:#3daee9;
      }</style>
  </defs>
  <g
     id="menu"
     transform="translate(0.52917,-249.37)">
    <rect
       x="-0.52916998"
       y="249.37"
       width="4.2333002"
       height="4.2333002"
       fill="none"
       id="rect5" />
    <rect
       x="-1.0174e-06"
       y="249.89999"
       width="3.175"
       height="3.175"
       fill="none"
       id="rect7" />
    <path
       style="color:#31363b;font-style:normal;font-variant:normal;font-weight:normal;font-stretch:normal;font-size:medium;line-height:normal;font-family:sans-serif;font-variant-ligatures:normal;font-variant-position:normal;font-variant-caps:normal;font-variant-numeric:normal;font-variant-alternates:normal;font-variant-east-asian:normal;font-feature-settings:normal;font-variation-settings:normal;text-indent:0;text-align:start;text-decoration:none;text-decoration-line:none;text-decoration-style:solid;text-decoration-color:#000000;letter-spacing:normal;word-spacing:normal;text-transform:none;writing-mode:lr-tb;direction:ltr;text-orientation:mixed;dominant-baseline:auto;baseline-shift:baseline;text-anchor:start;white-space:normal;shape-padding:0;shape-margin:0;inline-size:0;clip-rule:nonzero;display:inline;overflow:visible;visibility:visible;isolation:auto;mix-blend-mode:normal;color-interpolation:sRGB;color-interpolation-filters:linearRGB;solid-color:#000000;solid-opacity:1;vector-effect:none;fill:#ffffff;fill-opacity:1;fill-rule:nonzero;stroke:none;stroke-width:1;stroke-linecap:butt;stroke-linejoin:miter;stroke-miterlimit:4;stroke-dasharray:none;stroke-dashoffset:0;stroke-opacity:1;color-rendering:auto;image-rendering:auto;shape-rendering:auto;text-rendering:auto;enable-background:accumulate;stop-color:#31363b"
       d="m 4.5328e-8,250.17 v 0.52917 H 3.175 V 250.17 Z m 0,1.0583 v 0.52917 H 3.175 v -0.52917 z m 0,1.0583 v 0.52916 H 3.175 v -0.52916 z"
       id="path905" />
  </g>
  <g
     id="collapse"
     transform="translate(0.52917,-249.37)">
    <rect
       x="23.283001"
       y="254.14"
       width="4.2333002"
       height="4.2333002"
       fill="none"
       id="rect12" />
    <rect
       x="23.813"
       y="254.67"
       width="3.175"
       height="3.175"
       fill="none"
       id="rect14" />
    <path
       style="color:#31363b;font-style:normal;font-variant:normal;font-weight:normal;font-stretch:normal;font-size:medium;line-height:normal;font-family:sans-serif;font-variant-ligatures:normal;font-variant-position:normal;font-variant-caps:normal;font-variant-numeric:normal;font-variant-alternates:normal;font-variant-east-asian:normal;font-feature-settings:normal;font-variation-settings:normal;text-indent:0;text-align:start;text-decoration:none;text-decoration-line:none;text-decoration-style:solid;text-decoration-color:#000000;letter-spacing:normal;word-spacing:normal;text-transform:none;writing-mode:lr-tb;direction:ltr;text-orientation:mixed;dominant-baseline:auto;baseline-shift:baseline;text-anchor:start;white-space:normal;shape-padding:0;shape-margin:0;inline-size:0;clip-rule:nonzero;display:inline;overflow:visible;visibility:visible;isolation:auto;mix-blend-mode:normal;color-interpolation:sRGB;color-interpolation-filters:linearRGB;solid-color:#000000;solid-opacity:1;vector-effect:none;fill:#ffffff;fill-opacity:1;fill-rule:nonzero;stroke:none;stroke-width:1;stroke-linecap:butt;stroke-linejoin:miter;stroke-miterlimit:4;stroke-dasharray:none;stroke-dashoffset:0;stroke-opacity:1;color-rendering:auto;image-rendering:auto;shape-rendering:auto;text-rendering:auto;enable-background:accumulate;stop-color:#31363b"
       d="m 24.606,254.67 0.79375,0.79375 0.79375,-0.79375 z m -1.0583,1.3229 v 0.52917 h 3.7042 v -0.52917 z m 1.8521,1.0583 -0.79375,0.79375 h 1.5875 z"
       id="path991" />
  </g>
  <g
     id="return-to-source"
     transform="translate(0.52917007,-249.63454)">
    <rect
       x="18.521"
       y="254.14"
       width="4.2333002"
       height="4.2333002"
       fill="none"
       id="rect19" />
    <path
       style="color:#31363b;font-style:normal;font-variant:normal;font-weight:normal;font-stretch:normal;font-size:medium;line-height:normal;font-family:sans-serif;font-variant-ligatures:normal;font-variant-position:normal;font-variant-caps:normal;font-variant-numeric:normal;font-variant-alternates:normal;font-variant-east-asian:normal;font-feature-settings:normal;font-variation-settings:normal;text-indent:0;text-align:start;text-decoration:none;text-decoration-line:none;text-decoration-style:solid;text-decoration-color:#000000;letter-spacing:normal;word-spacing:normal;text-transform:none;writing-mode:lr-tb;direction:ltr;text-orientation:mixed;dominant-baseline:auto;baseline-shift:baseline;text-anchor:start;white-space:normal;shape-padding:0;shape-margin:0;inline-size:0;clip-rule:nonzero;display:inline;overflow:visible;visibility:visible;isolation:auto;mix-blend-mode:normal;color-interpolation:sRGB;color-interpolation-filters:linearRGB;solid-color:#000000;solid-opacity:1;vector-effect:none;fill:#ffffff;fill-opacity:1;fill-rule:nonzero;stroke:none;stroke-width:0.26458;stroke-linecap:butt;stroke-linejoin:miter;stroke-miterlimit:4;stroke-dasharray:none;stroke-dashoffset:0;stroke-opacity:1;color-rendering:auto;image-rendering:auto;shape-rendering:auto;text-rendering:auto;enable-background:accumulate;stop-color:#000000"
       d="m 19.04975,254.39702 c -0.146577,0 -0.26458,0.118 -0.26458,0.26458 v 3.17496 c 0,0.14658 0.118003,0.26458 0.26458,0.26458 h 3.17496 c 0.146577,0 0.26458,-0.118 0.26458,-0.26458 v -3.17496 c 0,-0.14658 -0.118003,-0.26458 -0.26458,-0.26458 z m 1.05832,0.52916 h 1.05832 l -0.52916,0.52916 z m -0.79374,1.05832 h 2.6458 v 0.52916 h -2.6458 z m 1.3229,1.05832 0.52916,0.52916 h -1.05832 z"
       id="path985" />
  </g>
  <g
     id="restore"
     transform="translate(0.52917,-249.37)">
    <rect
       x="28.046"
       y="254.14"
       width="4.2333002"
       height="4.2333002"
       fill="none"
       id="rect24" />
    <rect
       x="28.575001"
       y="254.67"
       width="3.175"
       height="3.175"
       fill="none"
       id="rect26" />
    <path
       style="color:#31363b;font-style:normal;font-variant:normal;font-weight:normal;font-stretch:normal;font-size:medium;line-height:normal;font-family:sans-serif;font-variant-ligatures:normal;font-variant-position:normal;font-variant-caps:normal;font-variant-numeric:normal;font-variant-alternates:normal;font-variant-east-asian:normal;font-feature-settings:normal;font-variation-settings:normal;text-indent:0;text-align:start;text-decoration:none;text-decoration-line:none;text-decoration-style:solid;text-decoration-color:#000000;letter-spacing:normal;word-spacing:normal;text-transform:none;writing-mode:lr-tb;direction:ltr;text-orientation:mixed;dominant-baseline:auto;baseline-shift:baseline;text-anchor:start;white-space:normal;shape-padding:0;shape-margin:0;inline-size:0;clip-rule:nonzero;display:inline;overflow:visible;visibility:visible;isolation:auto;mix-blend-mode:normal;color-interpolation:sRGB;color-interpolation-filters:linearRGB;solid-color:#000000;solid-opacity:1;vector-effect:none;fill:#ffffff;fill-opacity:1;fill-rule:nonzero;stroke:none;stroke-width:1;stroke-linecap:butt;stroke-linejoin:miter;stroke-miterlimit:4;stroke-dasharray:none;stroke-dashoffset:0;stroke-opacity:1;color-rendering:auto;image-rendering:auto;shape-rendering:auto;text-rendering:auto;enable-background:accumulate;stop-color:#31363b"
       d="m 29.369,255.46 0.79376,-0.79375 0.79374,0.79375 z m -1.0583,0.52917 v 0.52917 h 3.7042 v -0.52917 z m 1.8521,1.8521 -0.79376,-0.79375 h 1.5875 z"
       id="path997" />
  </g>
  <path
     id="rect1035"
     style="fill:#ffffff;fill-opacity:1;stroke-width:0.529161"
     d="m 6.1483995,-5.2917097 -0.040824,0.4878206 a 1.45519,1.45519 0 0 0 -0.4252928,0.2459774 l -0.4433792,-0.2087707 -0.4630161,0.8020101 0.4025555,0.2795667 a 1.45519,1.45519 0 0 0 -0.02222,0.2454605 1.45519,1.45519 0 0 0 0.021188,0.2464941 l -0.4015217,0.2785331 0.4630162,0.8020101 0.4423457,-0.2082538 a 1.45519,1.45519 0 0 0 0.4263262,0.244427 l 0.040824,0.488854 h 0.9260323 l 0.040824,-0.4878205 a 1.45519,1.45519 0 0 0 0.4252909,-0.2459772 l 0.4433793,0.2087705 0.4630161,-0.8020101 -0.4025552,-0.2795666 a 1.45519,1.45519 0 0 0 0.022219,-0.2454606 1.45519,1.45519 0 0 0 -0.021188,-0.2464941 L 8.4469423,-3.9646723 7.9839262,-4.7666824 7.5415804,-4.5584285 A 1.45519,1.45519 0 0 0 7.1152558,-4.8028556 L 7.0744318,-5.2917097 Z M 6.59798,-3.9688064 a 0.52916,0.52916 0 0 1 0.013435,0 0.52916,0.52916 0 0 1 0.5291617,0.5291613 0.52916,0.52916 0 0 1 -0.5291613,0.5291613 0.52916,0.52916 0 0 1 -0.5291613,-0.5291613 0.52916,0.52916 0 0 1 0.5157256,-0.5291613 z" />
  <g
     id="configure">
    <path
       id="rect925"
       style="fill:#fbfbfb;fill-rule:evenodd;stroke:#fbfbfb;stroke-width:0.163522;stroke-linejoin:round;stroke-opacity:1;paint-order:stroke fill markers"
       d="m 6.6145121,0.08166156 c -0.1449,0 -0.2878921,0.0148315 -0.4273844,0.0443956 -0.047675,0.0101081 -0.084691,0.0476653 -0.093427,0.0954165 l -0.087464,0.48039342 c -0.00234,0.0127713 -0.00621,0.0255241 -0.010603,0.0377681 C 5.9509489,0.86413857 5.8138863,0.92857797 5.6888433,0.88408487 L 5.2276652,0.72041975 c -0.04584,-0.0163213 -0.097237,-0.003505 -0.1298719,0.032468 C 4.9048032,0.96558857 4.7585364,1.2162913 4.6697458,1.4897126 c -0.014978,0.046128 -6.776e-4,0.096509 0.036445,0.1278834 l 0.3737133,0.3160658 c 0.00995,0.00841 0.019378,0.01792 0.02783,0.02783 0.085948,0.1007839 0.073388,0.251692 -0.02783,0.3372695 L 4.7061899,2.6148277 c -0.037113,0.031375 -0.051422,0.081758 -0.036445,0.1278848 0.08879,0.2734244 0.2350575,0.524773 0.4280475,0.7374873 0.032638,0.035961 0.084031,0.048786 0.1298719,0.032467 L 5.6888434,3.34834 C 5.7011264,3.344 5.7137664,3.34075 5.7266114,3.3384 5.8572426,3.314686 5.9824112,3.400486 6.0062335,3.5305574 l 0.087464,0.4803937 c 0.00873,0.047768 0.045754,0.085306 0.093427,0.095417 0.1394924,0.02955 0.2824843,0.045057 0.4273845,0.045057 0.1448122,0 0.2879706,-0.015508 0.4273849,-0.045057 0.047662,-0.010077 0.084008,-0.047682 0.092766,-0.095417 l 0.088128,-0.4803937 c 0.00234,-0.012823 0.00621,-0.02486 0.010603,-0.037107 C 7.2780729,3.3689478 7.4157913,3.3038666 7.5408415,3.3483432 L 8.0020196,3.512671 c 0.045866,0.016318 0.096574,0.00349 0.129209,-0.032467 C 8.3242339,3.2674808 8.4704942,3.0161323 8.5592779,2.742708 8.5742746,2.6965831 8.5599492,2.6461972 8.5228338,2.6148231 L 8.1491205,2.2987572 C 8.1391408,2.2903443 8.1297378,2.2815032 8.12129,2.2715904 8.0353216,2.1708071 8.047886,2.0192326 8.1491205,1.9336582 L 8.5228336,1.6175924 C 8.5599476,1.5862183 8.574272,1.5358368 8.5592782,1.4897089 8.4704944,1.2162925 8.3242339,0.96558987 8.1312303,0.75288895 8.0985931,0.71692048 8.0478877,0.70409962 8.0020211,0.72042096 l -0.461178,0.16366531 c -0.012283,0.00438 -0.024911,0.00829 -0.037768,0.010604 C 7.3724609,0.91840997 7.2466126,0.83193607 7.2227899,0.70186841 L 7.1346624,0.221475 C 7.1259057,0.17374483 7.0895593,0.13615576 7.0418972,0.12605861 6.9024829,0.09652968 6.7593244,0.08166304 6.6145122,0.08166304 Z m 0,0.3392574 c 0.072263,0 0.1440636,0.00445 0.2146867,0.0132515 l 0.060297,0.32865557 C 6.9473128,1.07821 7.2498852,1.2849003 7.5633728,1.2279798 c 0.030872,-0.0056 0.061194,-0.013326 0.090778,-0.023855 L 7.9722042,1.0908179 c 0.08651,0.1131696 0.1585553,0.2368372 0.2140239,0.3677497 L 7.9297966,1.6745802 C 7.68526,1.8813474 7.655503,2.2476343 7.8635356,2.4915808 c 0.020389,0.023931 0.042242,0.045961 0.066261,0.066261 l 0.2564311,0.216674 C 8.1307594,2.9054216 8.0587147,3.0284266 7.9722038,3.1416031 L 7.6541506,3.0289603 C 7.3539417,2.9221281 7.022226,3.0772873 6.9140131,3.3788196 c -0.010625,0.029617 -0.018841,0.059805 -0.024518,0.090778 l -0.060296,0.3293181 c -0.070624,0.00882 -0.1424246,0.013253 -0.2146865,0.013253 -0.072315,0 -0.144012,-0.00439 -0.2146861,-0.013253 L 6.3395283,3.4695975 C 6.2817565,3.1541558 5.9791695,2.9475164 5.6656516,3.0044438 c -0.030882,0.00562 -0.061186,0.013965 -0.090778,0.024518 L 5.2568198,3.1416041 C 5.1702892,3.0284281 5.0989174,2.9054231 5.0434591,2.7745173 L 5.2992274,2.5578432 C 5.5437842,2.351076 5.5741869,1.9854514 5.3661519,1.7415051 5.3457424,1.7175707 5.3232407,1.6948814 5.2992274,1.6745804 L 5.0434591,1.4585698 C 5.0989175,1.327657 5.1702886,1.2039895 5.25682,1.0908199 l 0.318054,0.1133075 c 0.3002261,0.1068293 0.6319249,-0.048344 0.7401377,-0.34985923 0.010625,-0.029628 0.018845,-0.0604587 0.024518,-0.0914413 l 0.060297,-0.32865562 c 0.070674,-0.008823 0.14237,-0.0132516 0.2146854,-0.0132523 z m 0,1.01710984 c -0.3747333,0 -0.6785146,0.3037812 -0.6785146,0.6785146 0,0.3747337 0.3037813,0.6785148 0.6785146,0.6785148 0.3747338,0 0.678515,-0.3037811 0.678515,-0.6785148 0,-0.3747334 -0.3037812,-0.6785146 -0.678515,-0.6785146 z M 6.5972851,1.777286 c 0.00578,-2.93e-4 0.011379,0 0.017227,0 0.1873652,0 0.3392576,0.1518924 0.3392576,0.3392574 0,0.1873652 -0.1518924,0.3392576 -0.3392576,0.3392576 -0.1873684,0 -0.3392573,-0.1518924 -0.3392573,-0.3392576 0,-0.1815097 0.1427745,-0.3301707 0.3220303,-0.3392574 z" />
    <rect
       x="4.4978762"
       y="-9.6774194e-05"
       width="4.2332802"
       height="4.2332802"
       color="#bebebe"
       enable-background="accumulate"
       fill="none"
       id="rect33"
       style="stroke-width:0.26458" />
  </g>
  <g
     id="rotate"
     transform="matrix(0.26458,0,0,0.26458,-102.39083,10.33)"
     enable-background="new">
    <path
       style="color:#000000;font-style:normal;font-variant:normal;font-weight:normal;font-stretch:normal;font-size:medium;line-height:normal;font-family:sans-serif;font-variant-ligatures:normal;font-variant-position:normal;font-variant-caps:normal;font-variant-numeric:normal;font-variant-alternates:normal;font-variant-east-asian:normal;font-feature-settings:normal;font-variation-settings:normal;text-indent:0;text-align:start;text-decoration:none;text-decoration-line:none;text-decoration-style:solid;text-decoration-color:#000000;letter-spacing:normal;word-spacing:normal;text-transform:none;writing-mode:lr-tb;direction:ltr;text-orientation:mixed;dominant-baseline:auto;baseline-shift:baseline;text-anchor:start;white-space:normal;shape-padding:0;shape-margin:0;inline-size:0;clip-rule:nonzero;display:inline;overflow:visible;visibility:visible;isolation:auto;mix-blend-mode:normal;color-interpolation:sRGB;color-interpolation-filters:linearRGB;solid-color:#000000;solid-opacity:1;vector-effect:none;fill:#ffffff;fill-opacity:1;fill-rule:nonzero;stroke:none;stroke-width:1;stroke-linecap:butt;stroke-linejoin:miter;stroke-miterlimit:4;stroke-dasharray:none;stroke-dashoffset:0;stroke-opacity:1;color-rendering:auto;image-rendering:auto;shape-rendering:auto;text-rendering:auto;enable-background:accumulate;stop-color:#000000"
       d="m 433,-38 c -3.866,0 -7,3.134 -7,7 0,3.866 3.134,7 7,7 3.1748,0 5.8615,-2.1032 6.7188,-5 h -2.1562 c -0.77427,1.7595 -2.5168,3 -4.5625,3 -2.7614,0 -5,-2.2386 -5,-5 0,-2.7614 2.2386,-5 5,-5 2.0457,0 3.7882,1.2405 4.5625,3 h 2.1562 c -0.85721,-2.8968 -3.5439,-5 -6.7188,-5 z"
       id="path921" />
    <rect
       transform="scale(-1)"
       x="-441"
       y="23.016001"
       width="16"
       height="16"
       color="#bebebe"
       fill="none"
       id="rect38" />
    <path
       style="color:#000000;font-style:normal;font-variant:normal;font-weight:normal;font-stretch:normal;font-size:medium;line-height:normal;font-family:sans-serif;font-variant-ligatures:normal;font-variant-position:normal;font-variant-caps:normal;font-variant-numeric:normal;font-variant-alternates:normal;font-variant-east-asian:normal;font-feature-settings:normal;font-variation-settings:normal;text-indent:0;text-align:start;text-decoration:none;text-decoration-line:none;text-decoration-style:solid;text-decoration-color:#000000;letter-spacing:normal;word-spacing:normal;text-transform:none;writing-mode:lr-tb;direction:ltr;text-orientation:mixed;dominant-baseline:auto;baseline-shift:baseline;text-anchor:start;white-space:normal;shape-padding:0;shape-margin:0;inline-size:0;clip-rule:nonzero;display:inline;overflow:visible;visibility:visible;isolation:auto;mix-blend-mode:normal;color-interpolation:sRGB;color-interpolation-filters:linearRGB;solid-color:#000000;solid-opacity:1;vector-effect:none;fill:#ffffff;fill-opacity:1;fill-rule:nonzero;stroke:none;stroke-width:1;stroke-linecap:butt;stroke-linejoin:miter;stroke-miterlimit:4;stroke-dasharray:none;stroke-dashoffset:0;stroke-opacity:1;color-rendering:auto;image-rendering:auto;shape-rendering:auto;text-rendering:auto;enable-background:accumulate;stop-color:#000000"
       d="m 434,-32 6,-6 v 6 z"
       id="path913" />
  </g>
  <g
     id="move"
     transform="matrix(0.26458,0,0,0.26458,-49.47783,5.3)"
     enable-background="new">
    <path
       style="color:#000000;font-style:normal;font-variant:normal;font-weight:normal;font-stretch:normal;font-size:medium;line-height:normal;font-family:sans-serif;font-variant-ligatures:normal;font-variant-position:normal;font-variant-caps:normal;font-variant-numeric:normal;font-variant-alternates:normal;font-variant-east-asian:normal;font-feature-settings:normal;font-variation-settings:normal;text-indent:0;text-align:start;text-decoration:none;text-decoration-line:none;text-decoration-style:solid;text-decoration-color:#000000;letter-spacing:normal;word-spacing:normal;text-transform:none;writing-mode:lr-tb;direction:ltr;text-orientation:mixed;dominant-baseline:auto;baseline-shift:baseline;text-anchor:start;white-space:normal;shape-padding:0;shape-margin:0;inline-size:0;clip-rule:nonzero;display:inline;overflow:visible;visibility:visible;isolation:auto;mix-blend-mode:normal;color-interpolation:sRGB;color-interpolation-filters:linearRGB;solid-color:#000000;solid-opacity:1;vector-effect:none;fill:#ffffff;fill-opacity:1;fill-rule:nonzero;stroke:none;stroke-width:1;stroke-linecap:butt;stroke-linejoin:miter;stroke-miterlimit:4;stroke-dasharray:none;stroke-dashoffset:0;stroke-opacity:1;color-rendering:auto;image-rendering:auto;shape-rendering:auto;text-rendering:auto;enable-background:accumulate;stop-color:#000000"
       d="M 253,-4.5 250,-8 h 2 v -2 h 2 v 2 h 2 z"
       id="path929" />
    <rect
       transform="matrix(0,1,1,0,0,0)"
       x="-20.018999"
       y="245"
       width="16"
       height="16"
       color="#bebebe"
       enable-background="new"
       fill="none"
       id="rect45" />
    <g
       fill="#dfdfdf"
       id="g53"
       style="fill:#ffffff;fill-opacity:1">
      <path
         d="m 253,-19.5 -3,3.5 h 2 v 2 h 2 v -2 h 2 z"
         id="path47"
         style="fill:#ffffff;fill-opacity:1" />
      <path
         d="m 260.5,-12 -3.5,-3 v 2 h -2 v 2 h 2 l -4e-5,2 z"
         id="path49"
         style="fill:#ffffff;fill-opacity:1" />
      <path
         d="m 245.5,-12 3.5,-3 v 2 h 2 v 2 h -2 l -4e-5,2 z"
         id="path51"
         style="fill:#ffffff;fill-opacity:1" />
    </g>
  </g>
  <g
     id="size-vertical"
     transform="matrix(0.26458,0,0,0.26458,-49.21283,-208.488)"
     enable-background="new">
    <path
       style="color:#000000;font-style:normal;font-variant:normal;font-weight:normal;font-stretch:normal;font-size:medium;line-height:normal;font-family:sans-serif;font-variant-ligatures:normal;font-variant-position:normal;font-variant-caps:normal;font-variant-numeric:normal;font-variant-alternates:normal;font-variant-east-asian:normal;font-feature-settings:normal;font-variation-settings:normal;text-indent:0;text-align:start;text-decoration:none;text-decoration-line:none;text-decoration-style:solid;text-decoration-color:#000000;letter-spacing:normal;word-spacing:normal;text-transform:none;writing-mode:lr-tb;direction:ltr;text-orientation:mixed;dominant-baseline:auto;baseline-shift:baseline;text-anchor:start;white-space:normal;shape-padding:0;shape-margin:0;inline-size:0;clip-rule:nonzero;display:inline;overflow:visible;visibility:visible;isolation:auto;mix-blend-mode:normal;color-interpolation:sRGB;color-interpolation-filters:linearRGB;solid-color:#000000;solid-opacity:1;vector-effect:none;fill:#ffffff;fill-opacity:1;fill-rule:nonzero;stroke:none;stroke-width:1;stroke-linecap:butt;stroke-linejoin:miter;stroke-miterlimit:4;stroke-dasharray:none;stroke-dashoffset:0;stroke-opacity:1;color-rendering:auto;image-rendering:auto;shape-rendering:auto;text-rendering:auto;enable-background:accumulate;stop-color:#000000"
       d="m 269,787 -3,5 h 2 v 6 h -2 l 3,5 3,-5 h -2 v -6 h 2 z"
       id="path937" />
    <rect
       transform="scale(-1)"
       x="-277"
       y="-803"
       width="16"
       height="16"
       color="#bebebe"
       fill="none"
       id="rect58" />
  </g>
  <g
     id="size-horizontal"
     transform="matrix(0.26458,0,0,0.26458,-39.15783,-209.017)"
     enable-background="new">
    <path
       style="color:#000000;font-style:normal;font-variant:normal;font-weight:normal;font-stretch:normal;font-size:medium;line-height:normal;font-family:sans-serif;font-variant-ligatures:normal;font-variant-position:normal;font-variant-caps:normal;font-variant-numeric:normal;font-variant-alternates:normal;font-variant-east-asian:normal;font-feature-settings:normal;font-variation-settings:normal;text-indent:0;text-align:start;text-decoration:none;text-decoration-line:none;text-decoration-style:solid;text-decoration-color:#000000;letter-spacing:normal;word-spacing:normal;text-transform:none;writing-mode:lr-tb;direction:ltr;text-orientation:mixed;dominant-baseline:auto;baseline-shift:baseline;text-anchor:start;white-space:normal;shape-padding:0;shape-margin:0;inline-size:0;clip-rule:nonzero;display:inline;overflow:visible;visibility:visible;isolation:auto;mix-blend-mode:normal;color-interpolation:sRGB;color-interpolation-filters:linearRGB;solid-color:#000000;solid-opacity:1;vector-effect:none;fill:#ffffff;fill-opacity:1;fill-rule:nonzero;stroke:none;stroke-width:1;stroke-linecap:butt;stroke-linejoin:miter;stroke-miterlimit:4;stroke-dasharray:none;stroke-dashoffset:0;stroke-opacity:1;color-rendering:auto;image-rendering:auto;shape-rendering:auto;text-rendering:auto;enable-background:accumulate;stop-color:#000000"
       d="m 246,792 -5,3 5,3 v -2 h 6 v 2 l 5,-3 -5,-3 v 2 h -6 z"
       id="path943" />
    <rect
       transform="scale(-1)"
       x="-257"
       y="-803"
       width="16"
       height="16"
       color="#bebebe"
       fill="none"
       id="rect63" />
  </g>
  <g
     id="size-diagonal-tr2bl"
     transform="matrix(0.26458,0,0,0.26458,-77.25783,-7.67)"
     enable-background="new">
    <path
       style="color:#bebebe;font-style:normal;font-variant:normal;font-weight:normal;font-stretch:normal;font-size:medium;line-height:normal;font-family:sans-serif;font-variant-ligatures:normal;font-variant-position:normal;font-variant-caps:normal;font-variant-numeric:normal;font-variant-alternates:normal;font-variant-east-asian:normal;font-feature-settings:normal;font-variation-settings:normal;text-indent:0;text-align:start;text-decoration:none;text-decoration-line:none;text-decoration-style:solid;text-decoration-color:#000000;letter-spacing:normal;word-spacing:normal;text-transform:none;writing-mode:lr-tb;direction:ltr;text-orientation:mixed;dominant-baseline:auto;baseline-shift:baseline;text-anchor:start;white-space:normal;shape-padding:0;shape-margin:0;inline-size:0;clip-rule:nonzero;display:inline;overflow:visible;visibility:visible;isolation:auto;mix-blend-mode:normal;color-interpolation:sRGB;color-interpolation-filters:linearRGB;solid-color:#000000;solid-opacity:1;vector-effect:none;fill:#ffffff;fill-opacity:1;fill-rule:nonzero;stroke:none;stroke-width:1;stroke-linecap:butt;stroke-linejoin:miter;stroke-miterlimit:4;stroke-dasharray:none;stroke-dashoffset:0;stroke-opacity:1;color-rendering:auto;image-rendering:auto;shape-rendering:auto;text-rendering:auto;enable-background:accumulate;stop-color:#000000"
       d="m 403,31.003 c -1,0 -1,1 -1,1 v 4 h 2 v -3 h 3 v -2 z m 8,0 v 2 h 3 v 3 h 2 v -4 c 0,-1 -1,-1 -1,-1 z m -9,7 v 4 c 0,1 1,1 1,1 h 4 v -2 h -3 v -3 z m 12,0 v 3 h -3 v 2 h 4 c 0,0 1,0 1,-1 v -4 z"
       id="path949" />
    <rect
       x="401"
       y="29"
       width="15.982"
       height="16"
       rx="0"
       ry="0"
       fill="none"
       id="rect68" />
  </g>
  <g
     id="size-diagonal-tl2br"
     transform="matrix(0.26458,0,0,0.26458,-105.83083,-3.17)"
     enable-background="new">
    <path
       style="color:#bebebe;font-style:normal;font-variant:normal;font-weight:normal;font-stretch:normal;font-size:medium;line-height:normal;font-family:sans-serif;font-variant-ligatures:normal;font-variant-position:normal;font-variant-caps:normal;font-variant-numeric:normal;font-variant-alternates:normal;font-variant-east-asian:normal;font-feature-settings:normal;font-variation-settings:normal;text-indent:0;text-align:start;text-decoration:none;text-decoration-line:none;text-decoration-style:solid;text-decoration-color:#000000;letter-spacing:normal;word-spacing:normal;text-transform:none;writing-mode:lr-tb;direction:ltr;text-orientation:mixed;dominant-baseline:auto;baseline-shift:baseline;text-anchor:start;white-space:normal;shape-padding:0;shape-margin:0;inline-size:0;clip-rule:nonzero;display:inline;overflow:visible;visibility:visible;isolation:auto;mix-blend-mode:normal;color-interpolation:sRGB;color-interpolation-filters:linearRGB;solid-color:#000000;solid-opacity:1;vector-effect:none;fill:#ffffff;fill-opacity:1;fill-rule:nonzero;stroke:none;stroke-width:1;stroke-linecap:butt;stroke-linejoin:miter;stroke-miterlimit:4;stroke-dasharray:none;stroke-dashoffset:0;stroke-opacity:1;color-rendering:auto;image-rendering:auto;shape-rendering:auto;text-rendering:auto;enable-background:accumulate;stop-color:#000000"
       d="m 403,31.003 c -1,0 -1,1 -1,1 v 4 h 2 v -3 h 3 v -2 z m 8,0 v 2 h 3 v 3 h 2 v -4 c 0,-1 -1,-1 -1,-1 z m -9,7 v 4 c 0,1 1,1 1,1 h 4 v -2 h -3 v -3 z m 12,0 v 3 h -3 v 2 h 4 c 0,0 1,0 1,-1 v -4 z"
       id="path961" />
    <rect
       x="401"
       y="29"
       width="15.982"
       height="16"
       rx="0"
       ry="0"
       fill="none"
       id="rect73" />
  </g>
  <g
     id="maximize"
     transform="matrix(0.26458,0,0,0.26458,-101.07083,-2.91)"
     enable-background="new">
    <path
       style="color:#bebebe;font-style:normal;font-variant:normal;font-weight:normal;font-stretch:normal;font-size:medium;line-height:normal;font-family:sans-serif;font-variant-ligatures:normal;font-variant-position:normal;font-variant-caps:normal;font-variant-numeric:normal;font-variant-alternates:normal;font-variant-east-asian:normal;font-feature-settings:normal;font-variation-settings:normal;text-indent:0;text-align:start;text-decoration:none;text-decoration-line:none;text-decoration-style:solid;text-decoration-color:#000000;letter-spacing:normal;word-spacing:normal;text-transform:none;writing-mode:lr-tb;direction:ltr;text-orientation:mixed;dominant-baseline:auto;baseline-shift:baseline;text-anchor:start;white-space:normal;shape-padding:0;shape-margin:0;inline-size:0;clip-rule:nonzero;display:inline;overflow:visible;visibility:visible;isolation:auto;mix-blend-mode:normal;color-interpolation:sRGB;color-interpolation-filters:linearRGB;solid-color:#000000;solid-opacity:1;vector-effect:none;fill:#ffffff;fill-opacity:1;fill-rule:nonzero;stroke:none;stroke-width:1;stroke-linecap:butt;stroke-linejoin:miter;stroke-miterlimit:4;stroke-dasharray:none;stroke-dashoffset:0;stroke-opacity:1;color-rendering:auto;image-rendering:auto;shape-rendering:auto;text-rendering:auto;enable-background:accumulate;stop-color:#000000"
       d="m 403,31.003 c -1,0 -1,1 -1,1 v 4 h 2 v -3 h 3 v -2 z m 8,0 v 2 h 3 v 3 h 2 v -4 c 0,-1 -1,-1 -1,-1 z m -9,7 v 4 c 0,1 1,1 1,1 h 4 v -2 h -3 v -3 z m 12,0 v 3 h -3 v 2 h 4 c 0,0 1,0 1,-1 v -4 z"
       id="path967" />
    <rect
       x="401"
       y="29"
       width="15.982"
       height="16"
       rx="0"
       ry="0"
       fill="none"
       id="rect78" />
  </g>
  <g
     id="unmaximize"
     transform="matrix(0.26458,0,0,0.26458,-96.04183,-3.43)"
     enable-background="new">
    <path
       style="color:#bebebe;font-style:normal;font-variant:normal;font-weight:normal;font-stretch:normal;font-size:medium;line-height:normal;font-family:sans-serif;font-variant-ligatures:normal;font-variant-position:normal;font-variant-caps:normal;font-variant-numeric:normal;font-variant-alternates:normal;font-variant-east-asian:normal;font-feature-settings:normal;font-variation-settings:normal;text-indent:0;text-align:start;text-decoration:none;text-decoration-line:none;text-decoration-style:solid;text-decoration-color:#000000;letter-spacing:normal;word-spacing:normal;text-transform:none;writing-mode:lr-tb;direction:ltr;text-orientation:mixed;dominant-baseline:auto;baseline-shift:baseline;text-anchor:start;white-space:normal;shape-padding:0;shape-margin:0;inline-size:0;clip-rule:nonzero;display:inline;overflow:visible;visibility:visible;isolation:auto;mix-blend-mode:normal;color-interpolation:sRGB;color-interpolation-filters:linearRGB;solid-color:#000000;solid-opacity:1;vector-effect:none;fill:#ffffff;fill-opacity:1;fill-rule:nonzero;stroke:none;stroke-width:1;stroke-linecap:butt;stroke-linejoin:miter;stroke-miterlimit:4;stroke-dasharray:none;stroke-dashoffset:0;stroke-opacity:1;color-rendering:auto;image-rendering:auto;shape-rendering:auto;text-rendering:auto;enable-background:accumulate;stop-color:#000000"
       d="m 412,38.003 c 0,0 -1,0 -1,1 v 4 h 2 v -3 h 3 v -2 z m -10,0 v 2 h 3 v 3 h 2 v -4 c 0,0 0,-1 -1,-1 z m 9,-7 v 4 c 0,0 0,1 1,1 h 4 v -2 h -3 v -3 z m -6,0 v 3 h -3 v 2 h 4 c 1,0 1,-1 1,-1 v -4 z"
       id="path973" />
    <rect
       x="401"
       y="29"
       width="15.982"
       height="16"
       rx="0"
       ry="0"
       fill="none"
       id="rect83" />
  </g>
  <g
     id="status"
     transform="matrix(-0.26458,0,0,0.26458,88.90017,35.72)"
     enable-background="new">
    <rect
       transform="scale(1,-1)"
       x="265"
       y="103.03"
       width="16"
       height="16"
       color="#bebebe"
       enable-background="accumulate"
       opacity="0"
       stroke-width="3"
       id="rect86" />
    <path
       style="color:#000000;font-style:normal;font-variant:normal;font-weight:normal;font-stretch:normal;font-size:medium;line-height:normal;font-family:sans-serif;font-variant-ligatures:normal;font-variant-position:normal;font-variant-caps:normal;font-variant-numeric:normal;font-variant-alternates:normal;font-variant-east-asian:normal;font-feature-settings:normal;font-variation-settings:normal;text-indent:0;text-align:start;text-decoration:none;text-decoration-line:none;text-decoration-style:solid;text-decoration-color:#000000;letter-spacing:normal;word-spacing:normal;text-transform:none;writing-mode:lr-tb;direction:ltr;text-orientation:mixed;dominant-baseline:auto;baseline-shift:baseline;text-anchor:start;white-space:normal;shape-padding:0;shape-margin:0;inline-size:0;clip-rule:nonzero;display:inline;overflow:visible;visibility:visible;isolation:auto;mix-blend-mode:normal;color-interpolation:sRGB;color-interpolation-filters:linearRGB;solid-color:#000000;solid-opacity:1;vector-effect:none;fill:#ffffff;fill-opacity:1;fill-rule:nonzero;stroke:none;stroke-width:1;stroke-linecap:butt;stroke-linejoin:miter;stroke-miterlimit:4;stroke-dasharray:none;stroke-dashoffset:0;stroke-opacity:1;color-rendering:auto;image-rendering:auto;shape-rendering:auto;text-rendering:auto;enable-background:accumulate;stop-color:#000000"
       d="m 279,-117 c 0.554,0 1,0.446 1,1 v 10 c 0,0.554 -0.446,1 -1,1 h -12 c -0.554,0 -1,-0.446 -1,-1 v -10 c 0,-0.554 0.446,-1 1,-1 z m -1,8 h -10 v 2 h 10 z"
       id="path979" />
  </g>
  <g
     id="delete"
     transform="matrix(0.26458,0,0,0.26458,-112.18083,-57.68)"
     enable-background="new">
    <rect
       x="441"
       y="255.00999"
       width="16"
       height="16"
       color="#000000"
       enable-background="new"
       fill="none"
       id="rect91" />
    <path
       style="color:#000000;font-style:normal;font-variant:normal;font-weight:normal;font-stretch:normal;font-size:medium;line-height:normal;font-family:sans-serif;font-variant-ligatures:normal;font-variant-position:normal;font-variant-caps:normal;font-variant-numeric:normal;font-variant-alternates:normal;font-variant-east-asian:normal;font-feature-settings:normal;font-variation-settings:normal;text-indent:0;text-align:start;text-decoration:none;text-decoration-line:none;text-decoration-style:solid;text-decoration-color:#000000;letter-spacing:normal;word-spacing:normal;text-transform:none;writing-mode:lr-tb;direction:ltr;text-orientation:mixed;dominant-baseline:auto;baseline-shift:baseline;text-anchor:start;white-space:normal;shape-padding:0;shape-margin:0;inline-size:0;clip-rule:nonzero;display:inline;overflow:visible;visibility:visible;isolation:auto;mix-blend-mode:normal;color-interpolation:sRGB;color-interpolation-filters:linearRGB;solid-color:#000000;solid-opacity:1;vector-effect:none;fill:#ffffff;fill-opacity:1;fill-rule:nonzero;stroke:none;stroke-width:1;stroke-linecap:butt;stroke-linejoin:miter;stroke-miterlimit:4;stroke-dasharray:none;stroke-dashoffset:0;stroke-opacity:1;color-rendering:auto;image-rendering:auto;shape-rendering:auto;text-rendering:auto;enable-background:accumulate;stop-color:#000000"
       d="m 443,260 v 9 c 5e-5,0.52358 0.47642,0.99995 1,1 h 8 1 c 0.52358,-5e-5 0.99995,-0.47642 1,-1 v -9 z"
       id="path1030" />
    <path
       style="color:#000000;font-style:normal;font-variant:normal;font-weight:normal;font-stretch:normal;font-size:medium;line-height:normal;font-family:sans-serif;font-variant-ligatures:normal;font-variant-position:normal;font-variant-caps:normal;font-variant-numeric:normal;font-variant-alternates:normal;font-variant-east-asian:normal;font-feature-settings:normal;font-variation-settings:normal;text-indent:0;text-align:start;text-decoration:none;text-decoration-line:none;text-decoration-style:solid;text-decoration-color:#000000;letter-spacing:normal;word-spacing:normal;text-transform:none;writing-mode:lr-tb;direction:ltr;text-orientation:mixed;dominant-baseline:auto;baseline-shift:baseline;text-anchor:start;white-space:normal;shape-padding:0;shape-margin:0;inline-size:0;clip-rule:nonzero;display:inline;overflow:visible;visibility:visible;isolation:auto;mix-blend-mode:normal;color-interpolation:sRGB;color-interpolation-filters:linearRGB;solid-color:#000000;solid-opacity:1;vector-effect:none;fill:#ffffff;fill-opacity:1;fill-rule:nonzero;stroke:none;stroke-width:1;stroke-linecap:butt;stroke-linejoin:miter;stroke-miterlimit:4;stroke-dasharray:none;stroke-dashoffset:0;stroke-opacity:1;color-rendering:auto;image-rendering:auto;shape-rendering:auto;text-rendering:auto;enable-background:accumulate;stop-color:#000000"
       d="m 442,258 v 1 l 13,-0.003 -2e-4,-0.99664 c 0,-1 -0.9998,-1.0034 -0.9998,-1.0034 h -3 c 0,0 0,-1 -1,-1 h -3 c -1,0 -1,1 -1,1 h -3 c 0,0 -1.0002,0.003 -1.0002,1.0034 z"
       id="path1036" />
  </g>
  <g
     id="add"
     transform="matrix(0.26458,0,0,0.26458,-6.35013,-214.308)"
     enable-background="new">
    <rect
       x="61"
       y="847"
       width="16"
       height="16"
       color="#bebebe"
       fill="none"
       id="rect98" />
    <path
       style="color:#bebebe;font-style:normal;font-variant:normal;font-weight:normal;font-stretch:normal;font-size:medium;line-height:normal;font-family:sans-serif;font-variant-ligatures:normal;font-variant-position:normal;font-variant-caps:normal;font-variant-numeric:normal;font-variant-alternates:normal;font-variant-east-asian:normal;font-feature-settings:normal;font-variation-settings:normal;text-indent:0;text-align:start;text-decoration:none;text-decoration-line:none;text-decoration-style:solid;text-decoration-color:#000000;letter-spacing:normal;word-spacing:normal;text-transform:none;writing-mode:lr-tb;direction:ltr;text-orientation:mixed;dominant-baseline:auto;baseline-shift:baseline;text-anchor:start;white-space:normal;shape-padding:0;shape-margin:0;inline-size:0;clip-rule:nonzero;display:inline;overflow:visible;visibility:visible;isolation:auto;mix-blend-mode:normal;color-interpolation:sRGB;color-interpolation-filters:linearRGB;solid-color:#000000;solid-opacity:1;vector-effect:none;fill:#ffffff;fill-opacity:1;fill-rule:nonzero;stroke:none;stroke-width:1;stroke-linecap:butt;stroke-linejoin:miter;stroke-miterlimit:4;stroke-dasharray:none;stroke-dashoffset:0;stroke-opacity:1;color-rendering:auto;image-rendering:auto;shape-rendering:auto;text-rendering:auto;enable-background:accumulate;stop-color:#000000"
       d="m 68,850 v 4 h -4 v 2 h 4 v 4 h 2 v -4 h 4 v -2 h -4 v -4 z"
       id="path1042" />
  </g>
  <g
     id="remove"
     transform="matrix(0.26458,0,0,0.26458,9.26047,-63.76)"
     enable-background="new">
    <rect
       x="20"
       y="276"
       width="16"
       height="16"
       color="#bebebe"
       fill="none"
       id="rect103" />
    <path
       style="color:#bebebe;font-style:normal;font-variant:normal;font-weight:normal;font-stretch:normal;font-size:medium;line-height:normal;font-family:sans-serif;font-variant-ligatures:normal;font-variant-position:normal;font-variant-caps:normal;font-variant-numeric:normal;font-variant-alternates:normal;font-variant-east-asian:normal;font-feature-settings:normal;font-variation-settings:normal;text-indent:0;text-align:start;text-decoration:none;text-decoration-line:none;text-decoration-style:solid;text-decoration-color:#000000;letter-spacing:normal;word-spacing:normal;text-transform:none;writing-mode:lr-tb;direction:ltr;text-orientation:mixed;dominant-baseline:auto;baseline-shift:baseline;text-anchor:start;white-space:normal;shape-padding:0;shape-margin:0;inline-size:0;clip-rule:nonzero;display:inline;overflow:visible;visibility:visible;isolation:auto;mix-blend-mode:normal;color-interpolation:sRGB;color-interpolation-filters:linearRGB;solid-color:#000000;solid-opacity:1;vector-effect:none;fill:#ffffff;fill-opacity:1;fill-rule:nonzero;stroke:none;stroke-width:1;stroke-linecap:butt;stroke-linejoin:miter;stroke-miterlimit:4;stroke-dasharray:none;stroke-dashoffset:0;stroke-opacity:1;color-rendering:auto;image-rendering:auto;shape-rendering:auto;text-rendering:auto;enable-background:accumulate;stop-color:#000000"
       d="m 23,283 h 9.9996 v 2.0002 H 23 Z"
       id="path1018" />
  </g>
  <g
     id="filter"
     transform="translate(-0.26465,-248.84082)">
    <rect
       x="18.52"
       y="258.89999"
       width="4.2329998"
       height="4.2329998"
       fill="none"
       id="rect108" />
    <rect
       x="19.049999"
       y="259.42999"
       width="3.175"
       height="3.175"
       fill="none"
       id="rect110" />
    <path
       style="color:#000000;font-style:normal;font-variant:normal;font-weight:normal;font-stretch:normal;font-size:medium;line-height:normal;font-family:sans-serif;font-variant-ligatures:normal;font-variant-position:normal;font-variant-caps:normal;font-variant-numeric:normal;font-variant-alternates:normal;font-variant-east-asian:normal;font-feature-settings:normal;font-variation-settings:normal;text-indent:0;text-align:start;text-decoration:none;text-decoration-line:none;text-decoration-style:solid;text-decoration-color:#000000;letter-spacing:normal;word-spacing:normal;text-transform:none;writing-mode:lr-tb;direction:ltr;text-orientation:mixed;dominant-baseline:auto;baseline-shift:baseline;text-anchor:start;white-space:normal;shape-padding:0;shape-margin:0;inline-size:0;clip-rule:nonzero;display:inline;overflow:visible;visibility:visible;isolation:auto;mix-blend-mode:normal;color-interpolation:sRGB;color-interpolation-filters:linearRGB;solid-color:#000000;solid-opacity:1;vector-effect:none;fill:#ffffff;fill-opacity:1;fill-rule:nonzero;stroke:none;stroke-width:0.26458;stroke-linecap:butt;stroke-linejoin:miter;stroke-miterlimit:4;stroke-dasharray:none;stroke-dashoffset:0;stroke-opacity:1;color-rendering:auto;image-rendering:auto;shape-rendering:auto;text-rendering:auto;enable-background:accumulate;stop-color:#000000"
       d="m 19.579067,259.42928 -0.26458,0.26458 v 0.26458 l 0.79374,1.39164 v 0.72553 l 0.79374,0.52813 v 5.3e-4 h 0.26458 v -1.25416 l 0.79374,-1.39164 v -0.26458 l -0.26458,-0.26458 h -2.11664 z m 0.26458,0.52916 h 0.79374 l -0.26458,0.26458 v 0.26458 z"
       id="path1048" />
  </g>
  <g
     id="help"
     transform="translate(-0.26466,-248.84082)">
    <rect
       x="-0.52999997"
       y="258.89999"
       width="4.2329998"
       height="4.2329998"
       opacity="0"
       id="rect115" />
    <g
       transform="matrix(0.26458,0,0,0.26458,-118,149.89)"
       id="g119">
      <path
         style="color:#000000;font-style:normal;font-variant:normal;font-weight:normal;font-stretch:normal;font-size:medium;line-height:normal;font-family:sans-serif;font-variant-ligatures:normal;font-variant-position:normal;font-variant-caps:normal;font-variant-numeric:normal;font-variant-alternates:normal;font-variant-east-asian:normal;font-feature-settings:normal;font-variation-settings:normal;text-indent:0;text-align:start;text-decoration:none;text-decoration-line:none;text-decoration-style:solid;text-decoration-color:#000000;letter-spacing:normal;word-spacing:normal;text-transform:none;writing-mode:lr-tb;direction:ltr;text-orientation:mixed;dominant-baseline:auto;baseline-shift:baseline;text-anchor:start;white-space:normal;shape-padding:0;shape-margin:0;inline-size:0;clip-rule:nonzero;display:inline;overflow:visible;visibility:visible;isolation:auto;mix-blend-mode:normal;color-interpolation:sRGB;color-interpolation-filters:linearRGB;solid-color:#000000;solid-opacity:1;vector-effect:none;fill:#ffffff;fill-opacity:1;fill-rule:nonzero;stroke:none;stroke-width:1;stroke-linecap:butt;stroke-linejoin:miter;stroke-miterlimit:4;stroke-dasharray:none;stroke-dashoffset:0;stroke-opacity:1;color-rendering:auto;image-rendering:auto;shape-rendering:auto;text-rendering:auto;enable-background:accumulate;stop-color:#000000"
         d="m 453,427 h -2 v -2 h 2 z m 2.07,-7.75 -0.9,0.92 C 453.45,420.9 453,421.5 453,423 h -2 v -0.5 c 0,-1.1 0.45,-2.1 1.17,-2.83 l 1.24,-1.26 c 0.37,-0.36 0.59,-0.86 0.59,-1.41 0,-1.1 -0.9,-2 -2,-2 -1.1,0 -2,0.9 -2,2 h -2 c 0,-2.21 1.79,-4 4,-4 2.21,0 4,1.79 4,4 0,0.88 -0.36,1.68 -0.93,2.25 z"
         id="path1024" />
    </g>
  </g>
  <g
     id="close"
     transform="matrix(0.26458,0,0,0.26458,-11.37683,-4.76)">
    <rect
       x="130"
       y="55.990002"
       width="16"
       height="16"
       opacity="0.00100002"
       id="rect122" />
    <g
       transform="matrix(1.4994,0,0,1.5,36.042,-724.98)"
       enable-background="new"
       id="g128">
      <g
         transform="translate(19,-242)"
         id="g126">
        <path
           style="color:#000000;font-style:normal;font-variant:normal;font-weight:normal;font-stretch:normal;font-size:medium;line-height:normal;font-family:sans-serif;font-variant-ligatures:normal;font-variant-position:normal;font-variant-caps:normal;font-variant-numeric:normal;font-variant-alternates:normal;font-variant-east-asian:normal;font-feature-settings:normal;font-variation-settings:normal;text-indent:0;text-align:start;text-decoration:none;text-decoration-line:none;text-decoration-style:solid;text-decoration-color:#000000;letter-spacing:normal;word-spacing:normal;text-transform:none;writing-mode:lr-tb;direction:ltr;text-orientation:mixed;dominant-baseline:auto;baseline-shift:baseline;text-anchor:start;white-space:normal;shape-padding:0;shape-margin:0;inline-size:0;clip-rule:nonzero;display:inline;overflow:visible;visibility:visible;isolation:auto;mix-blend-mode:normal;color-interpolation:sRGB;color-interpolation-filters:linearRGB;solid-color:#000000;solid-opacity:1;vector-effect:none;fill:#ffffff;fill-opacity:1;fill-rule:nonzero;stroke:none;stroke-width:1;stroke-linecap:butt;stroke-linejoin:miter;stroke-miterlimit:4;stroke-dasharray:none;stroke-dashoffset:0;stroke-opacity:1;color-rendering:auto;image-rendering:auto;shape-rendering:auto;text-rendering:auto;enable-background:accumulate;stop-color:#000000"
           d="m 45,764 h 1 c 0.01037,-1.2e-4 0.02079,-4.6e-4 0.03125,0 0.25495,0.0112 0.50987,0.12858 0.6875,0.3125 l 2.2812,2.2812 2.3125,-2.2812 c 0.26562,-0.2305 0.44667,-0.3055 0.6875,-0.3125 h 1 v 1 c 0,0.28647 -0.03434,0.55065 -0.25,0.75 l -2.2812,2.2812 2.25,2.25 c 0.18819,0.18817 0.28124,0.45345 0.28125,0.71875 v 1 h -1 c -0.2653,-10e-6 -0.53059,-0.0931 -0.71875,-0.28125 l -2.2812,-2.2812 -2.2812,2.2812 c -0.18816,0.18819 -0.45346,0.28125 -0.71875,0.28125 h -1 v -1 c -3e-6,-0.26529 0.09306,-0.53058 0.28125,-0.71875 l 2.2812,-2.25 -2.2812,-2.2812 C 45.07061,765.55537 44.97819,765.28075 45.0001,765 Z"
           id="path1054" />
      </g>
    </g>
  </g>
</svg>
